<svg width="44" height="44" viewBox="0 0 44 44" fill="none" xmlns="http://www.w3.org/2000/svg">
<g clip-path="url(#clip0_6_174)">
<path d="M41.4615 23.6923C42.8153 23.6923 44 22.5076 44 21.1538C44 19.8 42.8153 18.6153 41.4615 18.6153H29.2769C31.3077 9.30774 30.8 0 25.3846 0C20.477 0 23.5231 7.27688 20.9846 12.3538C18.4461 17.4307 12.6924 18.6154 12.6924 18.6154H11.8463V44H28.4308H34.6924C36.0462 44 37.2309 42.8153 37.2309 41.4615C37.2309 40.1077 36.0462 38.923 34.6924 38.923H32.1538V37.2308H38.077C39.4308 37.2308 40.6155 36.0461 40.6155 34.6923C40.6155 33.3384 39.4308 32.1538 38.077 32.1538H33.8462V30.4615H39.7693C41.1231 30.4615 42.3078 29.2769 42.3078 27.923C42.3078 26.5692 41.1231 25.3845 39.7693 25.3845H35.5386V23.6923H41.4615Z" fill="#0AADF0"/>
<path d="M0 22V40.6154C0 42.4769 1.52303 44 3.38462 44H10.1538V18.6154H3.38462C1.52303 18.6154 0 20.1384 0 22ZM5.07692 37.2307C6.09231 37.2307 6.76923 37.9077 6.76923 38.9231C6.76923 39.9384 6.09231 40.6154 5.07692 40.6154C4.06154 40.6154 3.38462 39.9384 3.38462 38.9231C3.38462 37.9077 4.06154 37.2307 5.07692 37.2307Z" fill="#0AADF0"/>
</g>
<defs>
<clipPath id="clip0_6_174">
<rect width="44" height="44" fill="white"/>
</clipPath>
</defs>
</svg>
