<svg width="42" height="42" viewBox="0 0 42 42" fill="none" xmlns="http://www.w3.org/2000/svg">
<g clip-path="url(#clip0_6_205)">
<path d="M38.6371 5.73172C24.9157 5.61958 21.9521 2.04034 16.1112 2.04034C9.16062 2.04034 5.08074 3.95176 3.3306 5.02906C2.03448 5.72626 2.3352 4.38352 2.3352 3.91606C2.3352 3.44566 3.10632 2.98912 3.10632 2.98912C4.71408 1.94752 8.84856 -0.139038 16.1108 -0.139038C21.9622 -0.139038 24.9316 3.45406 38.7026 3.55234C38.7026 3.55234 39.7526 3.44566 39.7526 4.38352C39.7526 5.32138 39.6871 5.73172 38.6371 5.73172Z" fill="#0AADF0"/>
<path d="M39.7526 40.5128C39.7526 39.5754 38.7026 39.6816 38.7026 39.6816C24.932 39.5804 21.9626 35.9902 16.1108 35.9902C8.84814 35.9902 4.71408 38.0764 3.10632 39.118C3.10632 39.118 2.3352 39.5749 2.3352 40.0449C2.3352 40.5124 2.03448 41.8555 3.3306 41.1525C5.08074 40.0806 9.1602 38.1692 16.1112 38.1642C21.9521 38.1642 24.9157 41.7489 38.6371 41.861C39.6871 41.861 39.7526 41.4507 39.7526 40.5128Z" fill="#0AADF0"/>
<path d="M39.7526 8.84354C39.7526 7.90568 38.7026 8.01236 38.7026 8.01236C24.932 7.91114 21.9626 4.32098 16.1108 4.32098C8.84814 4.32098 4.71408 6.40712 3.10632 7.44914C3.10632 7.44914 2.3352 7.90568 2.3352 8.37608V35.5282C2.3352 35.9957 2.03448 37.3384 3.3306 36.6408C5.08074 35.561 9.1602 33.6525 16.1112 33.6525C21.9521 33.6525 24.9157 37.2313 38.6371 37.3439C39.6871 37.3439 39.7526 36.9336 39.7526 35.9957V8.84354Z" fill="#0AADF0"/>
</g>
<defs>
<clipPath id="clip0_6_205">
<rect width="42" height="42" fill="white"/>
</clipPath>
</defs>
</svg>
