<svg width="45" height="45" viewBox="0 0 45 45" fill="none" xmlns="http://www.w3.org/2000/svg">
<path d="M45 9.84375C45 5.90625 41.9062 2.8125 37.9688 2.8125H22.0781C19.2656 2.8125 16.5938 3.79687 14.625 5.76562L1.40625 18C0.5625 18.7031 0 19.8281 0 21.0938C0 23.4844 1.82812 25.3125 4.21875 25.3125H23.9062C24.75 25.3125 25.3125 24.75 25.3125 23.9062C25.3125 23.0625 24.75 22.5 23.9062 22.5H4.21875C3.375 22.5 2.8125 21.9375 2.8125 21.0938C2.8125 20.25 3.375 19.6875 4.21875 19.6875H23.9062C26.2969 19.6875 28.125 21.5156 28.125 23.9062C28.125 26.2969 26.2969 28.125 23.9062 28.125H1.40625C0.5625 28.125 0 28.6875 0 29.5312C0 30.375 0.5625 30.9375 1.40625 30.9375H23.9062C25.4531 30.9375 27 30.375 28.125 29.5312C28.125 29.5312 28.2656 29.5312 28.2656 29.3906L28.4063 29.25C28.6875 28.9687 28.9688 28.8281 29.1094 28.5469L42.8906 14.9063C44.2969 13.5 45 11.6719 45 9.84375Z" fill="#0AADF0"/>
<path d="M1.40625 33.75C0.984375 33.75 0.5625 33.6094 0.140625 33.6094C0.703125 35.2969 2.25 36.5625 4.21875 36.5625H23.9063C24.75 36.5625 25.3125 36 25.3125 35.1563C25.3125 34.3125 24.75 33.75 23.9063 33.75H4.21875H1.40625Z" fill="#0AADF0"/>
<path d="M31.2188 30.375C30.9375 30.6562 30.6562 30.9375 30.375 31.2188L30.0938 31.5L29.8125 31.6406C29.1094 32.2031 28.4062 32.4844 27.5625 32.9062C27.9844 33.4687 28.125 34.3125 28.125 35.0156C28.125 37.4062 26.2969 39.2344 23.9062 39.2344H1.40625C0.5625 39.2344 0 39.7969 0 40.6406C0 41.4844 0.5625 42.0469 1.40625 42.0469H23.9062C25.4531 42.0469 27 41.4844 28.125 40.6406C28.125 40.6406 28.2656 40.6406 28.2656 40.5L28.4063 40.3594C28.6875 40.0781 28.9688 39.9375 29.1094 39.6562L42.8906 26.0156C44.1562 24.75 45 22.9219 45 21.0937C45 19.8281 44.5781 18.7031 44.0156 17.7188L31.2188 30.375Z" fill="#0AADF0"/>
</svg>
