<svg width="19" height="19" viewBox="0 0 19 19" fill="none" xmlns="http://www.w3.org/2000/svg">
<g clip-path="url(#clip0_7_482)">
<path d="M18.9145 15.1437L18.82 14.8587C18.596 14.193 17.8618 13.4986 17.1874 13.3157L14.6912 12.6338C14.0142 12.4496 13.0486 12.6973 12.5534 13.1925L11.6499 14.0959C8.36672 13.2088 5.79216 10.6341 4.90619 7.35155L5.80964 6.44809C6.30492 5.95282 6.55251 4.98847 6.36835 4.31155L5.68768 1.81412C5.50351 1.13843 4.80791 0.40428 4.14345 0.182765L3.8585 0.0869601C3.19276 -0.134555 2.24331 0.0894687 1.74808 0.584701L0.396693 1.93732C0.155269 2.17747 0.000969679 2.86435 0.000969679 2.86686C-0.0462958 7.15739 1.63607 11.2911 4.67101 14.3261C7.69851 17.3536 11.8167 19.0335 16.0948 18.9974C16.1172 18.9974 16.824 18.8456 17.0654 18.6054L18.4168 17.254C18.912 16.7588 19.136 15.8094 18.9145 15.1437Z" fill="black"/>
</g>
<defs>
<clipPath id="clip0_7_482">
<rect width="19" height="19" fill="white"/>
</clipPath>
</defs>
</svg>
