<svg width="58" height="44" viewBox="0 0 58 44" fill="none" xmlns="http://www.w3.org/2000/svg">
<g clip-path="url(#clip0_7_356)">
<path d="M46.955 14.3564H43.3035L44.4037 1.7244C44.4057 1.70152 44.4061 1.67898 44.4062 1.65644C44.4062 1.65451 44.4064 1.6527 44.4064 1.65077C44.4064 1.65043 44.4064 1.65111 44.4064 1.65077C44.4064 1.30696 44.199 1.00303 43.8942 0.871278C43.8916 0.870145 43.8891 0.868786 43.8865 0.867653C43.8675 0.859724 43.8479 0.852925 43.8282 0.846355C43.8209 0.843976 43.8139 0.841032 43.8065 0.838766C43.7904 0.833895 43.7739 0.830043 43.7574 0.826078C43.7459 0.82336 43.7348 0.820075 43.7231 0.817809C43.7087 0.814977 43.6938 0.813165 43.679 0.811013C43.6652 0.808973 43.6516 0.806594 43.6377 0.805348C43.6353 0.805122 43.6332 0.804667 43.6308 0.80444C43.6158 0.803081 43.6011 0.803309 43.5863 0.802742C43.5763 0.802402 43.5666 0.80127 43.5566 0.80127H43.5459C43.545 0.80127 43.5441 0.80127 43.5433 0.80127H26.1692C25.7002 0.80127 25.3196 1.1819 25.3196 1.65088C25.3196 2.11874 25.7002 2.5005 26.1692 2.5005H42.6305L40.9397 21.9142C40.9394 21.9156 40.9394 21.9171 40.9392 21.9186L40.5126 26.817H10.9904L11.4842 21.7195H17.1053C17.5746 21.7195 17.9549 21.3391 17.9549 20.8699C17.9549 20.4007 17.5746 20.0203 17.1053 20.0203H11.6489L12.6915 9.25911H21.6379C22.1073 9.25911 22.4875 8.87871 22.4875 8.4095C22.4875 7.94028 22.1073 7.55988 21.6379 7.55988H12.8562L13.3465 2.5005H22.7708C23.2386 2.5005 23.6204 2.11874 23.6204 1.65088C23.6204 1.1819 23.2386 0.80127 22.7708 0.80127H12.5754C12.5749 0.80127 12.5746 0.801383 12.5742 0.801383C12.1751 0.80127 11.8289 1.08221 11.7452 1.47167C11.7446 1.47451 11.7436 1.47722 11.743 1.48006C11.7387 1.50124 11.7359 1.52288 11.733 1.54463C11.7322 1.55154 11.7308 1.55811 11.7301 1.56502C11.73 1.56638 11.7296 1.56762 11.7295 1.56898L11.1491 7.55988H0.849613C0.380287 7.55988 0 7.94028 0 8.4095C0 8.87871 0.380287 9.25911 0.849613 9.25911H10.9844L9.94172 20.0203H6.91041C6.44108 20.0203 6.0608 20.4007 6.0608 20.8699C6.0608 21.3391 6.44108 21.7195 6.91041 21.7195H9.77712L9.20935 27.5786C9.20924 27.5795 9.20924 27.5804 9.20912 27.5812L8.3313 36.6413C8.33119 36.6424 8.33108 36.6435 8.33096 36.6444L8.33062 36.6477C8.32949 36.6595 8.3296 36.671 8.32892 36.6828C8.32813 36.6984 8.32654 36.7137 8.32654 36.7296C8.32654 36.7303 8.32666 36.731 8.32666 36.7317C8.32666 36.7536 8.32824 36.7751 8.32983 36.7967C8.33051 36.8036 8.33028 36.8106 8.33108 36.8174C8.33334 36.8394 8.33708 36.861 8.34104 36.8825C8.34218 36.8889 8.34274 36.8953 8.34399 36.9016C8.34727 36.9179 8.35192 36.9336 8.35622 36.9496C8.35917 36.9608 8.36155 36.9722 8.36495 36.9832C8.36597 36.9863 8.36733 36.9892 8.36823 36.9924C8.40935 37.1188 8.47913 37.2323 8.57021 37.325C8.57191 37.3267 8.57327 37.3286 8.57497 37.3302C8.58403 37.3393 8.59389 37.3474 8.6034 37.356C8.66197 37.4097 8.72813 37.4553 8.80052 37.491C8.81558 37.4984 8.83042 37.5063 8.84583 37.5127C8.85047 37.5147 8.85546 37.5161 8.86021 37.5179C8.88151 37.5264 8.90292 37.5346 8.92501 37.5415C8.92705 37.542 8.92898 37.5424 8.93102 37.5431C8.95616 37.5505 8.98154 37.5571 9.00748 37.5624C9.01088 37.5631 9.01439 37.5633 9.01768 37.564C9.04237 37.5687 9.06718 37.5726 9.09244 37.5751C9.09301 37.5751 9.09346 37.5752 9.09403 37.5754C9.1219 37.5781 9.14954 37.5794 9.17695 37.5794C9.17729 37.5794 9.17774 37.5793 9.1782 37.5793H12.9604C13.3781 40.7459 16.0929 43.1984 19.3718 43.1984C22.6506 43.1984 25.3654 40.7459 25.783 37.5793H39.4107C39.8285 40.7459 42.5432 43.1984 45.822 43.1984C49.1007 43.1984 51.8157 40.7459 52.2335 37.5793H56.0167C56.0172 37.5793 56.0179 37.5794 56.0185 37.5794C56.0468 37.5794 56.0747 37.5777 56.1023 37.575C56.1073 37.5746 56.112 37.5735 56.117 37.573C56.1391 37.5704 56.1611 37.5673 56.1826 37.563C56.1919 37.5612 56.2009 37.5587 56.21 37.5565C56.2267 37.5527 56.2435 37.5486 56.2598 37.5437C56.2709 37.5405 56.2816 37.5366 56.2925 37.5329C56.3064 37.5281 56.3204 37.5231 56.3341 37.5176C56.3459 37.5129 56.3571 37.5078 56.3685 37.5027C56.381 37.497 56.3934 37.4911 56.4056 37.4848C56.4171 37.4789 56.4282 37.4728 56.4393 37.4665C56.451 37.4597 56.4625 37.4527 56.474 37.4454C56.4846 37.4386 56.4953 37.4317 56.5055 37.4245C56.517 37.4164 56.528 37.4079 56.5392 37.3993C56.5485 37.392 56.5579 37.3847 56.567 37.377C56.5787 37.3671 56.5896 37.3568 56.6007 37.3463C56.6084 37.3389 56.6165 37.3317 56.624 37.324C56.6358 37.312 56.647 37.2993 56.6582 37.2865C56.6642 37.2796 56.6704 37.2729 56.6762 37.2659C56.6887 37.2505 56.7 37.2346 56.7113 37.2186C56.7152 37.2131 56.7195 37.2079 56.7232 37.2022C56.737 37.1815 56.7501 37.1602 56.7621 37.1382C56.763 37.1368 56.7639 37.1356 56.7644 37.1341C56.7772 37.1106 56.789 37.0864 56.7996 37.0615C56.8025 37.0544 56.8048 37.047 56.8076 37.0399C56.8145 37.0223 56.8213 37.0048 56.8271 36.9865C56.8308 36.9747 56.8335 36.9626 56.8368 36.9507C56.8406 36.9366 56.8445 36.9225 56.8477 36.9081C56.8505 36.8953 56.8523 36.8822 56.8545 36.8692C56.8564 36.8577 56.8589 36.8465 56.8604 36.8348C56.8964 36.5462 57.5617 31.2085 57.8589 27.757C57.8592 27.7537 57.8593 27.7503 57.8596 27.747C57.9452 26.7521 58 25.9143 58 25.4013C58 19.3112 53.0453 14.3564 46.955 14.3564ZM43.1555 16.0558H46.6313L46.1873 21.153H42.7115L43.1555 16.0558ZM19.3721 41.4991C16.742 41.4991 14.6024 39.3594 14.6024 36.7295C14.6024 34.0995 16.7421 31.9599 19.3721 31.9599C22.002 31.9599 24.1417 34.0995 24.1417 36.7295C24.1417 39.3594 22.002 41.4991 19.3721 41.4991ZM45.822 41.4991C43.192 41.4991 41.0525 39.3594 41.0525 36.7295C41.0525 34.0995 43.1922 31.9599 45.822 31.9599C48.4521 31.9599 50.5917 34.0995 50.5917 36.7295C50.5917 39.3594 48.4521 41.4991 45.822 41.4991ZM55.2659 35.8795H52.2337C51.8162 32.7127 49.1013 30.2601 45.8222 30.2601C42.5434 30.2601 39.8285 32.7129 39.4109 35.8795H25.7834C25.3658 32.7127 22.651 30.2601 19.3721 30.2601C16.0931 30.2601 13.3781 32.7129 12.9606 35.8795H10.1122L10.8258 28.5158H41.2912C41.2916 28.5158 41.292 28.5162 41.2924 28.5162C41.3209 28.5162 41.3491 28.5146 41.3769 28.5118C41.3821 28.5113 41.3872 28.5102 41.3925 28.5095C41.4147 28.5069 41.4367 28.5038 41.4585 28.4995C41.4679 28.4975 41.4771 28.4949 41.4864 28.4927C41.5034 28.4886 41.5203 28.4846 41.5369 28.4796C41.5482 28.4762 41.559 28.4722 41.57 28.4683C41.5842 28.4633 41.5985 28.4584 41.6123 28.4528C41.6242 28.4479 41.6357 28.4425 41.6472 28.437C41.6598 28.4313 41.6724 28.4255 41.6845 28.4191C41.696 28.413 41.7074 28.4064 41.7188 28.3999C41.7305 28.3931 41.742 28.3862 41.7534 28.3789C41.7644 28.3718 41.7748 28.3643 41.7853 28.3568C41.7965 28.3489 41.8074 28.3407 41.8183 28.3323C41.828 28.3244 41.8376 28.3164 41.8472 28.3081C41.8579 28.2988 41.8685 28.2893 41.8787 28.2795C41.8873 28.2712 41.8959 28.2627 41.9043 28.254C41.9145 28.2433 41.9243 28.2323 41.9341 28.2211C41.9416 28.2123 41.9491 28.2034 41.9564 28.1944C41.9658 28.1825 41.9747 28.1703 41.9836 28.1579C41.9902 28.1486 41.9967 28.1393 42.003 28.1298C42.0113 28.117 42.0192 28.1039 42.0268 28.0905C42.0326 28.0805 42.0385 28.0706 42.0437 28.0604C42.0508 28.047 42.057 28.0334 42.0634 28.0197C42.0684 28.0087 42.0735 27.998 42.078 27.9866C42.0836 27.9733 42.0882 27.9596 42.0931 27.9458C42.0973 27.9337 42.1017 27.9216 42.1054 27.9091C42.1092 27.896 42.1122 27.8825 42.1156 27.8692C42.1189 27.8557 42.1226 27.8423 42.1252 27.8286C42.1278 27.8152 42.1293 27.8016 42.1314 27.788C42.1334 27.774 42.1358 27.7602 42.1372 27.7459C42.1374 27.7439 42.1378 27.7419 42.138 27.7399L42.5638 22.8518H46.9548C49.5579 22.8518 50.732 24.2005 51.9748 25.6286C53.0003 26.8068 54.1453 28.1214 56.0914 28.4421C55.8442 31.0555 55.4447 34.4105 55.2659 35.8795ZM56.2367 26.7395C54.9741 26.4821 54.1974 25.5946 53.2563 24.5134C52.0794 23.1614 50.6427 21.5114 47.8885 21.204L48.328 16.1575C52.8325 16.8237 56.3008 20.7147 56.3008 25.4015C56.3008 25.72 56.277 26.1826 56.2367 26.7395Z" fill="#597AAD"/>
</g>
<defs>
<clipPath id="clip0_7_356">
<rect width="58" height="44" fill="white"/>
</clipPath>
</defs>
</svg>
