<svg width="58" height="58" viewBox="0 0 58 58" fill="none" xmlns="http://www.w3.org/2000/svg">
<g clip-path="url(#clip0_7_358)">
<mask id="mask0_7_358" style="mask-type:luminance" maskUnits="userSpaceOnUse" x="0" y="0" width="58" height="58">
<path d="M58 0H0V58H58V0Z" fill="white"/>
</mask>
<g mask="url(#mask0_7_358)">
<path d="M37.4873 4.57355C37.2917 4.43638 37.0474 4.3877 36.8147 4.43992C36.5815 4.49213 36.3815 4.63993 36.2629 4.84702C36.2571 4.8572 36.25 4.86649 36.2438 4.87578C35.9713 5.26519 35.4327 5.35989 35.0433 5.08774C34.6588 4.8187 34.1291 4.91163 33.8601 5.29616L32.6219 7.06486C32.3529 7.44939 32.4463 7.97907 32.8304 8.24812C32.979 8.3521 33.149 8.40211 33.3171 8.40211C33.5848 8.40211 33.8486 8.27555 34.0136 8.0397L34.8477 6.84803C35.631 7.06618 36.4819 6.89803 37.1235 6.39269L38.3767 7.27018C38.7613 7.53922 39.2905 7.44585 39.56 7.06176C39.829 6.67722 39.7356 6.14754 39.3511 5.8785L37.4873 4.57355Z" fill="#597AAD"/>
<path d="M46.8829 15.2753L46.0488 16.4665C45.7798 16.8511 45.8731 17.3807 46.2572 17.6498C46.4059 17.7538 46.5758 17.8033 46.744 17.8033C47.0117 17.8033 47.2754 17.6772 47.4405 17.4409L48.6791 15.6727C48.9481 15.2881 48.8547 14.7585 48.4706 14.4894C48.0812 14.2168 47.9861 13.6783 48.2591 13.2885C48.2658 13.2792 48.272 13.2699 48.2795 13.2615C48.4335 13.0787 48.5038 12.8402 48.4728 12.6035C48.4423 12.3667 48.3135 12.1534 48.118 12.0167L46.2541 10.7118C45.8696 10.4427 45.3399 10.5361 45.0709 10.9206C44.8014 11.3047 44.8952 11.8348 45.2793 12.1039L46.5325 12.9809C46.2767 13.7571 46.4099 14.6138 46.8829 15.2753Z" fill="#597AAD"/>
<path d="M42.3743 34.3628C42.7779 34.3628 43.1527 34.5243 43.4297 34.8181C43.7518 35.1588 44.2895 35.1743 44.6306 34.8522C44.9723 34.53 44.9873 33.9924 44.6652 33.6512C44.0726 33.0238 43.2376 32.6636 42.3743 32.6636C40.637 32.6636 39.2241 34.0769 39.2241 35.8142C39.2241 37.551 40.637 38.9644 42.3743 38.9644C43.216 38.9644 44.0072 38.6369 44.6019 38.0418C44.9338 37.7099 44.9338 37.1718 44.6019 36.8404C44.2704 36.5085 43.7324 36.5085 43.4005 36.8404C43.1266 37.1143 42.7619 37.2652 42.3743 37.2652C41.5743 37.2652 40.9233 36.6142 40.9233 35.8142C40.9233 35.0137 41.5743 34.3628 42.3743 34.3628Z" fill="#597AAD"/>
<path d="M49.9389 29.8293V23.0245C49.9389 20.7141 48.0591 18.8344 45.7488 18.8344H41.2401C41.5039 16.5564 40.76 14.5527 39.1909 13.454C37.8616 12.5234 36.1394 12.3565 34.341 12.984C32.6414 13.5774 31.0603 14.8244 29.8903 16.4953C29.3721 17.2347 28.9597 18.0188 28.6606 18.8344H23.1293L35.0185 1.85502L51.5164 13.4066L49.003 16.9967C48.734 17.3812 48.8273 17.9109 49.2114 18.1799C49.596 18.449 50.1256 18.3556 50.3947 17.9711L53.1347 14.058C53.5475 13.4699 53.4046 12.6552 52.8156 12.2419L35.6699 0.236781C35.3849 0.0367687 35.0389 -0.0402272 34.6959 0.0199534C34.353 0.0805767 34.0543 0.270411 33.8538 0.555827L29.9213 6.17254V2.78561C29.9213 2.06654 29.3363 1.48155 28.6172 1.48155H8.239C7.51993 1.48155 6.93494 2.06654 6.93494 2.78561V7.43678C6.93494 7.90628 7.31549 8.28639 7.78455 8.28639C8.25404 8.28639 8.63416 7.90628 8.63416 7.43678V3.18121H11.0958V18.8339H8.83461C8.76779 18.8339 8.70097 18.8357 8.63416 18.8388V10.8352C8.63416 10.3662 8.25404 9.98561 7.78455 9.98561C7.31549 9.98561 6.93494 10.3662 6.93494 10.8352V19.2902C5.57689 19.984 4.64453 21.3974 4.64453 23.0245V48.6035C4.64453 50.9138 6.52429 52.7935 8.83461 52.7935H15.1784C15.6479 52.7935 16.028 52.4134 16.028 51.9439C16.028 51.4749 15.6479 51.0943 15.1784 51.0943H8.83461C7.46108 51.0943 6.34375 49.977 6.34375 48.6035V23.0245C6.34375 21.9359 7.04556 21.0084 8.01996 20.6703C8.04164 20.6641 8.06332 20.6571 8.08412 20.6491C8.3213 20.5739 8.57353 20.5332 8.83505 20.5332H45.7488C47.1223 20.5332 48.2401 21.6509 48.2401 23.0245V29.7116H42.1574C38.7926 29.7116 36.0549 32.4489 36.0549 35.8142C36.0549 39.179 38.7926 41.9163 42.1574 41.9163H48.2401V48.6035C48.2401 49.977 47.1223 51.0943 45.7488 51.0943H39.2568C38.7873 51.0943 38.4072 51.4749 38.4072 51.9439C38.4072 52.4134 38.7873 52.7935 39.2568 52.7935H45.7488C48.0591 52.7935 49.9393 50.9138 49.9393 48.6035V41.7986C51.8616 41.3424 53.2957 39.6113 53.2957 37.5519V34.0765C53.2953 32.0166 51.8611 30.2855 49.9389 29.8293ZM31.282 17.4706C33.2197 14.7032 36.3305 13.5261 38.2165 14.8461C39.3028 15.6067 39.7812 17.0993 39.5268 18.8339H30.497C30.7125 18.3649 30.9745 17.9087 31.282 17.4706ZM28.2221 8.59924L21.0553 18.8344H16.8687V3.18077H28.2221V8.59924ZM12.795 3.18077H15.1695V18.8339H12.795V3.18077ZM51.5961 37.5515C51.5961 39.0215 50.4004 40.2171 48.9304 40.2171H42.1574C39.7294 40.2171 37.7541 38.2418 37.7541 35.8137C37.7541 33.3862 39.7294 31.4108 42.1574 31.4108H48.9304C50.4004 31.4108 51.5961 32.6065 51.5961 34.0765V37.5515Z" fill="#597AAD"/>
<path d="M27.2914 37.4707C21.6318 37.4707 17.0271 42.0754 17.0271 47.7355C17.0271 53.3951 21.6318 57.9999 27.2914 57.9999C32.9515 57.9999 37.5562 53.3951 37.5562 47.7355C37.5562 42.0754 32.9515 37.4707 27.2914 37.4707ZM27.2914 56.3006C22.5686 56.3006 18.7263 52.4584 18.7263 47.7355C18.7263 43.0122 22.5686 39.1699 27.2914 39.1699C32.0147 39.1699 35.857 43.0122 35.857 47.7355C35.857 52.4584 32.0147 56.3006 27.2914 56.3006Z" fill="#597AAD"/>
<path d="M28.0163 46.8861H26.5671C26.1401 46.8861 25.7927 46.5387 25.7927 46.1117C25.7927 45.6847 26.1401 45.3373 26.5671 45.3373H29.3403C29.8093 45.3373 30.1899 44.9567 30.1899 44.4877C30.1899 44.0186 29.8093 43.6381 29.3403 43.6381H28.2973V42.9199C28.2973 42.4508 27.9167 42.0703 27.4477 42.0703C26.9786 42.0703 26.5981 42.4508 26.5981 42.9199V43.6381H26.5671C25.2033 43.6381 24.0935 44.7479 24.0935 46.1117C24.0935 47.4755 25.2033 48.5853 26.5671 48.5853H28.0163C28.4433 48.5853 28.7902 48.9322 28.7902 49.3592C28.7902 49.7862 28.4433 50.1336 28.0163 50.1336H25.2431C24.7736 50.1336 24.3935 50.5142 24.3935 50.9832C24.3935 51.4523 24.7736 51.8328 25.2431 51.8328H26.5981V52.551C26.5981 53.0201 26.9786 53.4006 27.4477 53.4006C27.9172 53.4006 28.2973 53.0201 28.2973 52.551V51.8169C29.5292 51.6766 30.4899 50.6283 30.4899 49.3592C30.4895 47.9954 29.3801 46.8861 28.0163 46.8861Z" fill="#597AAD"/>
</g>
</g>
<defs>
<clipPath id="clip0_7_358">
<rect width="58" height="58" fill="white"/>
</clipPath>
</defs>
</svg>
