<svg width="57" height="57" viewBox="0 0 57 57" fill="none" xmlns="http://www.w3.org/2000/svg">
<g clip-path="url(#clip0_7_369)">
<mask id="mask0_7_369" style="mask-type:luminance" maskUnits="userSpaceOnUse" x="0" y="0" width="57" height="57">
<path d="M57 0H0V57H57V0Z" fill="white"/>
</mask>
<g mask="url(#mask0_7_369)">
<path d="M56.997 37.1966L56.5 19.6579C56.4529 17.9923 54.7929 16.5001 53.0024 16.5001C52.9853 16.5001 52.9679 16.5002 52.9509 16.5004C52.0752 16.5144 49.2197 16.9916 49.2408 22.5415L49.2771 32.069C49.2784 32.4019 49.2469 32.7202 49.1815 33.0279C49.0671 32.8572 48.9344 32.6952 48.7838 32.5444C47.5735 31.3342 45.5898 31.3204 44.2673 32.5127C44.2375 32.5395 44.2095 32.5684 44.1837 32.599C42.6397 34.4245 40.7464 36.0201 39.2252 37.3022C38.6942 37.7497 38.1928 38.1723 37.782 38.5427C36.0886 40.0688 35.863 42.1837 35.8656 44.0513L35.883 56.1103C35.8837 56.6017 36.2822 56.9996 36.7736 56.9996H46.4973C46.7336 56.9996 46.96 56.9057 47.1271 56.7387C47.2941 56.5717 47.3879 56.3452 47.3879 56.1089L47.3878 49.6786L55.06 42.0064C56.3788 40.688 57.0487 39.0247 56.997 37.1966ZM45.8673 48.6801C45.7003 48.8471 45.6065 49.0737 45.6065 49.3099L45.6066 55.2184H37.6629L37.6467 44.0488C37.6445 42.4996 37.8038 40.9207 38.9744 39.8657C39.3632 39.5154 39.8311 39.1209 40.373 38.6643C41.9317 37.3507 43.8683 35.7185 45.5005 33.8002C46.1261 33.2687 46.9876 33.2673 47.5243 33.804C48.0028 34.2825 48.0726 35.0175 47.7333 35.5706L47.4929 35.8665L41.4076 41.952C41.0598 42.2998 41.0598 42.8637 41.4077 43.2115C41.5816 43.3853 41.8094 43.4723 42.0374 43.4723C42.2653 43.4723 42.4933 43.3853 42.6672 43.2115L48.5805 37.298C48.7206 37.1579 48.864 37.0206 48.9904 36.8676C49.191 36.6248 49.3787 36.37 49.5775 36.1252C50.5796 34.8918 51.064 33.5628 51.0583 32.0623L51.022 22.5348C51.012 19.8912 51.7436 18.3012 52.9794 18.2814C53.8223 18.2693 54.6991 18.988 54.7194 19.7082L55.2164 37.2468C55.2545 38.5919 54.778 39.7694 53.8004 40.7469L45.8673 48.6801ZM19.218 38.543C18.8072 38.1726 18.3057 37.75 17.7747 37.3025C16.2535 36.0204 14.3602 34.4249 12.8162 32.5993C12.7904 32.5687 12.7624 32.5399 12.7326 32.513C11.41 31.3205 9.42604 31.3349 8.21623 32.5448C8.06661 32.6943 7.93368 32.8562 7.81823 33.028C7.75289 32.7203 7.72149 32.4021 7.72283 32.0693L7.75912 22.5418C7.78005 16.9918 4.92471 16.5147 4.049 16.5007C4.03185 16.5005 4.01471 16.5004 3.99745 16.5004C2.20719 16.5004 0.546949 17.9927 0.499857 19.6582L0.00277705 37.1971C-0.0488792 39.025 0.620982 40.6882 1.93967 42.0068L9.61195 49.6791V56.1094C9.61195 56.3456 9.7058 56.5721 9.8728 56.7392C10.0399 56.9062 10.2664 57 10.5026 57H20.2263C20.7177 57 21.1162 56.602 21.117 56.1107L21.1343 44.0518C21.1369 42.184 20.9113 40.069 19.218 38.543ZM19.3369 55.2186H11.3932L11.3933 49.3101C11.3933 49.0739 11.2995 48.8473 11.1325 48.6803L3.19923 40.7472C2.22177 39.7699 1.74529 38.5923 1.78336 37.2474L2.28033 19.7085C2.30048 18.9949 3.16272 18.2816 3.99701 18.2816C4.0048 18.2816 4.01259 18.2816 4.02039 18.2817C5.25613 18.3016 5.98778 19.8916 5.97776 22.5352L5.94147 32.0625C5.93579 33.5631 6.42018 34.8921 7.42224 36.1255C7.61718 36.3654 7.80176 36.6138 7.99703 36.8528C8.14598 37.0351 8.31854 37.1973 8.48476 37.3635L14.3327 43.2117C14.5067 43.3857 14.7345 43.4725 14.9625 43.4725C15.1904 43.4725 15.4184 43.3856 15.5922 43.2117C15.9401 42.8639 15.9401 42.3 15.5923 41.9522L9.50697 35.8667L9.26762 35.5721C9.13079 35.3489 9.05765 35.0905 9.05765 34.8199C9.05765 34.4345 9.20616 34.0739 9.47569 33.8043C10.0124 33.2675 10.8739 33.2691 11.4994 33.8006C13.1316 35.7188 15.0682 37.351 16.6269 38.6646C17.1687 39.1213 17.6366 39.5157 18.0255 39.866C19.196 40.921 19.3552 42.5 19.3531 44.049L19.3369 55.2186ZM28.4999 3.40764C21.2937 3.40764 15.431 9.2704 15.431 16.4767C15.431 23.6828 21.2936 29.5456 28.4999 29.5456C35.7062 29.5456 41.5689 23.6828 41.5689 16.4766C41.5689 9.2704 35.7061 3.40764 28.4999 3.40764ZM34.8953 25.7725L34.6173 25.2911C34.3715 24.8652 33.8266 24.7195 33.4007 24.9651C32.9747 25.211 32.8287 25.7558 33.0747 26.1818L33.3542 26.6659C32.1369 27.2482 30.7996 27.6187 29.3905 27.7293V27.169C29.3905 26.6771 28.9917 26.2783 28.4999 26.2783C28.0081 26.2783 27.6093 26.6771 27.6093 27.169V27.7293C26.2001 27.6187 24.8629 27.2482 23.6455 26.666L23.9251 26.1818C24.171 25.7558 24.025 25.2111 23.599 24.9652C23.173 24.7193 22.6283 24.8652 22.3823 25.2912L22.1044 25.7725C20.9706 24.9899 19.9864 24.0058 19.204 22.872L19.6853 22.5942C20.1112 22.3482 20.2573 21.8035 20.0112 21.3776C19.7654 20.9517 19.2209 20.8057 18.7946 21.0516L18.3106 21.3311C17.7282 20.1138 17.3577 18.7766 17.2472 17.3674H17.8075C18.2993 17.3674 18.6981 16.9686 18.6981 16.4768C18.6981 15.9849 18.2993 15.5862 17.8075 15.5862H17.2472C17.3577 14.177 17.7282 12.8398 18.3106 11.6224L18.7946 11.902C18.9349 11.983 19.088 12.0214 19.2391 12.0214C19.5469 12.0214 19.8463 11.8617 20.0112 11.576C20.2573 11.15 20.1112 10.6053 19.6853 10.3593L19.204 10.0814C19.9864 8.94755 20.9706 7.96341 22.1044 7.181L22.3823 7.66227C22.5473 7.94794 22.8467 8.10769 23.1546 8.10769C23.3056 8.10769 23.4587 8.06917 23.599 7.98824C24.025 7.74231 24.171 7.19759 23.9251 6.77164L23.6455 6.28748C24.8629 5.70512 26.2001 5.33462 27.6093 5.22418V5.7845C27.6093 6.27635 28.0081 6.67512 28.4999 6.67512C28.9917 6.67512 29.3905 6.27635 29.3905 5.7845V5.22418C30.7997 5.33473 32.1369 5.70523 33.3542 6.28759L33.0747 6.77164C32.8287 7.1977 32.9747 7.74231 33.4007 7.98835C33.5409 8.0694 33.694 8.10781 33.8451 8.10781C34.1529 8.10781 34.4523 7.94805 34.6173 7.66238L34.8953 7.181C36.029 7.9633 37.0133 8.94744 37.7958 10.0813L37.3144 10.3592C36.8885 10.6051 36.7424 11.1498 36.9884 11.5758C37.1533 11.8615 37.4527 12.0212 37.7606 12.0212C37.9116 12.0212 38.0648 11.9827 38.205 11.9018L38.6892 11.6222C39.2716 12.8396 39.6421 14.1767 39.7526 15.5859H39.1922C38.7003 15.5859 38.3016 15.9847 38.3016 16.4766C38.3016 16.9684 38.7003 17.3672 39.1922 17.3672H39.7526C39.6421 18.7764 39.2716 20.1135 38.6892 21.3309L38.205 21.0514C37.779 20.8053 37.2344 20.9514 36.9883 21.3774C36.7424 21.8034 36.8885 22.3481 37.3144 22.594L37.7957 22.8719C37.0133 24.0058 36.029 24.9899 34.8953 25.7725ZM33.9794 18.6117L31.0352 16.912C31.0594 16.7704 31.0727 16.6251 31.0727 16.4767C31.0727 15.371 30.3715 14.426 29.3905 14.0629V8.73102C29.3905 8.23917 28.9917 7.84039 28.4999 7.84039C28.0081 7.84039 27.6093 8.23917 27.6093 8.73102V14.0629C26.6283 14.426 25.9271 15.371 25.9271 16.4767C25.9271 17.8953 27.0812 19.0495 28.4999 19.0495C29.1244 19.0495 29.6976 18.8256 30.1438 18.4541L33.0887 20.1544C33.229 20.2354 33.3821 20.2739 33.5332 20.2739C33.841 20.2739 34.1403 20.1141 34.3053 19.8284C34.5512 19.4024 34.4053 18.8576 33.9794 18.6117ZM28.4999 17.2681C28.0634 17.2681 27.7084 16.9131 27.7084 16.4766C27.7084 16.04 28.0634 15.6849 28.4999 15.6849C28.9364 15.6849 29.2914 16.04 29.2914 16.4766C29.2914 16.9131 28.9364 17.2681 28.4999 17.2681ZM44.9765 16.4766C44.9765 7.39141 37.5851 0 28.4999 0C19.4147 0 12.0233 7.39141 12.0233 16.4766C12.0233 25.5617 19.4147 32.9531 28.4999 32.9531C37.5851 32.9531 44.9765 25.5618 44.9765 16.4766ZM28.4999 31.1719C20.3969 31.1719 13.8046 24.5796 13.8046 16.4766C13.8046 8.37354 20.3969 1.78125 28.4999 1.78125C36.6029 1.78125 43.1952 8.37354 43.1952 16.4766C43.1952 24.5796 36.6029 31.1719 28.4999 31.1719Z" fill="#597AAD"/>
</g>
</g>
<defs>
<clipPath id="clip0_7_369">
<rect width="57" height="57" fill="white"/>
</clipPath>
</defs>
</svg>
