<svg width="64" height="64" viewBox="0 0 64 64" fill="none" xmlns="http://www.w3.org/2000/svg">
<path d="M46.94 29.1901C46.6748 29.1901 46.4204 29.0848 46.2329 28.8972C46.0454 28.7097 45.94 28.4553 45.94 28.1901V19.3701H36.18C35.9148 19.3701 35.6604 19.2648 35.4729 19.0772C35.2853 18.8897 35.18 18.6353 35.18 18.3701C35.18 18.1049 35.2853 17.8505 35.4729 17.663C35.6604 17.4755 35.9148 17.3701 36.18 17.3701H46.94C47.2052 17.3701 47.4596 17.4755 47.6471 17.663C47.8346 17.8505 47.94 18.1049 47.94 18.3701V28.1901C47.94 28.4553 47.8346 28.7097 47.6471 28.8972C47.4596 29.0848 47.2052 29.1901 46.94 29.1901Z" fill="#597AAD"/>
<path d="M46.94 46.6301H36.18C35.9148 46.6301 35.6604 46.5247 35.4729 46.3372C35.2853 46.1496 35.18 45.8953 35.18 45.6301C35.18 45.3648 35.2853 45.1105 35.4729 44.923C35.6604 44.7354 35.9148 44.6301 36.18 44.6301H45.94V35.8101C45.94 35.5448 46.0454 35.2905 46.2329 35.103C46.4204 34.9154 46.6748 34.8101 46.94 34.8101C47.2052 34.8101 47.4596 34.9154 47.6471 35.103C47.8346 35.2905 47.94 35.5448 47.94 35.8101V45.6301C47.94 45.8953 47.8346 46.1496 47.6471 46.3372C47.4596 46.5247 47.2052 46.6301 46.94 46.6301Z" fill="#597AAD"/>
<path d="M27.82 46.6301H17.06C16.7948 46.6301 16.5404 46.5247 16.3529 46.3372C16.1654 46.1496 16.06 45.8953 16.06 45.6301V35.8101C16.06 35.5448 16.1654 35.2905 16.3529 35.103C16.5404 34.9154 16.7948 34.8101 17.06 34.8101C17.3252 34.8101 17.5796 34.9154 17.7671 35.103C17.9546 35.2905 18.06 35.5448 18.06 35.8101V44.6301H27.82C28.0852 44.6301 28.3396 44.7354 28.5271 44.923C28.7146 45.1105 28.82 45.3648 28.82 45.6301C28.82 45.8953 28.7146 46.1496 28.5271 46.3372C28.3396 46.5247 28.0852 46.6301 27.82 46.6301Z" fill="#597AAD"/>
<path d="M17.06 29.1901C16.7948 29.1901 16.5404 29.0848 16.3529 28.8972C16.1654 28.7097 16.06 28.4553 16.06 28.1901V18.3701C16.06 18.1049 16.1654 17.8505 16.3529 17.663C16.5404 17.4755 16.7948 17.3701 17.06 17.3701H27.82C28.0852 17.3701 28.3396 17.4755 28.5271 17.663C28.7146 17.8505 28.82 18.1049 28.82 18.3701C28.82 18.6353 28.7146 18.8897 28.5271 19.0772C28.3396 19.2648 28.0852 19.3701 27.82 19.3701H18.06V28.1901C18.06 28.4553 17.9546 28.7097 17.7671 28.8972C17.5796 29.0848 17.3252 29.1901 17.06 29.1901Z" fill="#597AAD"/>
<path d="M54.25 55.25H9.75C9.48478 55.25 9.23043 55.1446 9.04289 54.9571C8.85536 54.7696 8.75 54.5152 8.75 54.25V9.75C8.75 9.48478 8.85536 9.23043 9.04289 9.04289C9.23043 8.85536 9.48478 8.75 9.75 8.75H54.25C54.5152 8.75 54.7696 8.85536 54.9571 9.04289C55.1446 9.23043 55.25 9.48478 55.25 9.75V54.25C55.25 54.5152 55.1446 54.7696 54.9571 54.9571C54.7696 55.1446 54.5152 55.25 54.25 55.25ZM10.75 53.25H53.25V10.75H10.75V53.25Z" fill="#597AAD"/>
</svg>
