<svg width="58" height="58" viewBox="0 0 58 58" fill="none" xmlns="http://www.w3.org/2000/svg">
<g clip-path="url(#clip0_7_267)">
<mask id="mask0_7_267" style="mask-type:luminance" maskUnits="userSpaceOnUse" x="0" y="0" width="58" height="58">
<path d="M58 0H0V58H58V0Z" fill="white"/>
</mask>
<g mask="url(#mask0_7_267)">
<path d="M42.2697 54.3969C41.7424 54.3969 41.3909 54.7485 41.3909 55.2757V56.2424H1.75758V10.9848H10.6333C10.1939 12.3909 10.2818 13.3576 10.2818 14.3242C10.2818 14.8515 10.6333 15.203 11.1606 15.203H32.0758C32.603 15.203 32.9545 14.8515 32.9545 14.3242C32.9545 13.3576 33.0424 12.3909 32.603 10.9848H41.4788V17.0485C41.4788 17.5757 41.8303 17.9273 42.3576 17.9273C42.8848 17.9273 43.2364 17.5757 43.2364 17.0485V10.106C43.2364 9.57877 42.8848 9.22726 42.3576 9.22726H31.8121C30.9333 7.64544 29.5273 6.41514 27.7697 5.53635C27.5939 2.46059 24.8697 -0.0878906 21.6182 -0.0878906C18.3667 -0.0878906 15.6424 2.37271 15.4667 5.53635C13.7091 6.32726 12.3909 7.64544 11.4242 9.22726H0.878788C0.351515 9.22726 0 9.57877 0 10.106V57.1212C0 57.6485 0.351515 58 0.878788 58H42.2697C42.797 58 43.1485 57.6485 43.1485 57.1212V55.2757C43.1485 54.8363 42.7091 54.3969 42.2697 54.3969ZM16.6091 6.94241C16.9606 6.76665 17.2242 6.41514 17.1364 5.88786C17.1364 3.60302 19.0697 1.75756 21.5303 1.75756C23.9909 1.75756 25.9242 3.60302 25.9242 5.88786C25.8364 6.41514 26.1 6.76665 26.4515 6.94241C29.2636 7.99695 31.0212 10.5454 31.1091 13.4454H12.0394C12.0394 10.6333 13.8848 8.08483 16.6091 6.94241Z" fill="#597AAD"/>
<path d="M21.5303 10.2818C23.3758 10.2818 24.9576 8.78786 24.9576 6.85452C24.9576 4.92119 23.4636 3.42725 21.5303 3.42725C19.6848 3.42725 18.103 4.92119 18.103 6.85452C18.103 8.78786 19.6848 10.2818 21.5303 10.2818ZM21.5303 5.18482C22.4091 5.18482 23.2 5.88785 23.2 6.85452C23.2 7.82119 22.497 8.52422 21.5303 8.52422C20.6515 8.52422 19.8606 7.82119 19.8606 6.85452C19.8606 5.88785 20.6515 5.18482 21.5303 5.18482Z" fill="#597AAD"/>
<path d="M12.9181 20.4755C12.9181 19.9482 12.5666 19.5967 12.0394 19.5967H6.0636C5.53633 19.5967 5.18481 19.9482 5.18481 20.4755V26.8907C5.18481 27.4179 5.53633 27.7695 6.0636 27.7695H12.0394C12.5666 27.7695 12.9181 27.4179 12.9181 26.8907V20.4755ZM11.1606 25.924H6.94239V21.2664H11.1606V25.924Z" fill="#597AAD"/>
<path d="M12.9181 32.2514C12.9181 31.7241 12.5666 31.3726 12.0394 31.3726H6.0636C5.53633 31.3726 5.18481 31.7241 5.18481 32.2514V38.6665C5.18481 39.1938 5.53633 39.5453 6.0636 39.5453H12.0394C12.5666 39.5453 12.9181 39.1938 12.9181 38.6665V32.2514ZM11.1606 37.7877H6.94239V33.1302H11.1606V37.7877Z" fill="#597AAD"/>
<path d="M12.0394 43.2363H6.0636C5.53633 43.2363 5.18481 43.5878 5.18481 44.1151V50.5303C5.18481 51.0575 5.53633 51.4091 6.0636 51.4091H12.0394C12.5666 51.4091 12.9181 51.0575 12.9181 50.5303V44.1151C12.9181 43.5878 12.4788 43.2363 12.0394 43.2363ZM11.1606 49.6515H6.94239V44.9939H11.1606V49.6515Z" fill="#597AAD"/>
<path d="M57.4727 28.1213L41.4788 19.4213C41.2151 19.2456 40.8636 19.2456 40.6879 19.4213C39.6333 19.9486 26.8909 26.8032 24.7818 27.9456C24.5182 28.1213 24.3424 28.4729 24.3424 28.7365V42.7971C24.3424 43.0607 24.5182 43.4122 24.7818 43.5001L40.6879 53.5183C40.9515 53.694 41.303 53.694 41.5666 53.5183L57.5606 44.9941C57.8242 44.8183 58 44.5547 58 44.2031V28.9122C58 28.6486 57.8242 28.2971 57.4727 28.1213ZM41.1273 21.1789L55.3636 28.9122L51.6727 30.9335L37.4363 23.1123L41.1273 21.1789ZM48.1576 33.3062L33.3939 25.3092L35.503 24.1668L50.706 32.5153V36.8213L48.597 37.9638V34.0971C48.597 33.7456 48.4212 33.3941 48.1576 33.3062ZM31.5485 26.2759L45.8727 34.0971L41.1273 36.7335L26.9788 28.7365L31.5485 26.2759ZM26.0121 42.1819V30.1425L40.1606 38.1395V51.1456L26.0121 42.1819ZM42.006 51.2334V38.2274L46.8394 35.591V39.4577C46.8394 39.8092 47.0151 40.0728 47.2788 40.2486C47.5424 40.4244 47.8939 40.4244 48.1576 40.2486L52.0242 38.1395C52.2879 37.9638 52.4636 37.7001 52.4636 37.3486V32.5153L56.2424 30.4941V43.7637L42.006 51.2334Z" fill="#597AAD"/>
<path d="M28.8242 23.6395C28.8242 23.1122 28.4727 22.7607 27.9454 22.7607H15.3788C14.8515 22.7607 14.5 23.1122 14.5 23.6395C14.5 24.1668 14.8515 24.5183 15.3788 24.5183H27.9454C28.3848 24.5183 28.8242 24.1668 28.8242 23.6395Z" fill="#597AAD"/>
<path d="M22.5848 34.6245H15.2909C14.7636 34.6245 14.4121 34.976 14.4121 35.5033C14.4121 36.0305 14.7636 36.3821 15.2909 36.3821H22.5848C23.1121 36.3821 23.4636 36.0305 23.4636 35.5033C23.4636 34.976 23.0242 34.6245 22.5848 34.6245Z" fill="#597AAD"/>
<path d="M13.8849 47.2787C13.8849 47.806 14.2364 48.1575 14.7637 48.1575H26.2758C26.8031 48.1575 27.1546 47.806 27.1546 47.2787C27.1546 46.7514 26.8031 46.3999 26.2758 46.3999H14.7637C14.3243 46.3999 13.8849 46.8393 13.8849 47.2787Z" fill="#597AAD"/>
</g>
</g>
<defs>
<clipPath id="clip0_7_267">
<rect width="58" height="58" fill="white"/>
</clipPath>
</defs>
</svg>
