<svg width="353" height="49" viewBox="0 0 353 49" fill="none" xmlns="http://www.w3.org/2000/svg">
<g clip-path="url(#clip0_6_61)">
<path d="M7.3 7.49999V21.4C7.3 22.1 7.4 22.6 7.6 22.8C7.8 23.1 8.3 23.2 9 23.3V25H8.9C8.3 25 7.7 25 7.3 25C6.9 25 6.5 24.9 6.2 24.8C5.9 24.7 5.7 24.6 5.5 24.4C5.3 24.2 5.1 24 4.9 23.8C4.7 24 4.5 24.2 4.3 24.4C4.1 24.6 3.9 24.7 3.6 24.8C3.5 25 3.1 25 2.7 25C2.3 25 1.8 25 1.2 25H0V23.3C1.1 23.3 1.8 23.2 2.2 22.9C2.6 22.6 2.7 22.1 2.7 21.3V7.49999C2.7 6.69999 2.5 6.19999 2.2 5.89999C1.9 5.69999 1.1 5.59999 0 5.59999V3.89999H1.1C1.7 3.89999 2.2 3.89999 2.6 3.89999C3.1 3.99999 3.5 3.99999 3.7 4.09999C3.9 4.19999 4.2 4.29999 4.4 4.49999C4.6 4.59999 4.8 4.79999 5 5.09999C5.2 4.89999 5.4 4.69999 5.6 4.49999C5.8 4.29999 6 4.19999 6.3 4.09999C6.6 3.99999 6.9 3.99999 7.4 3.89999C7.8 3.89999 8.3 3.89999 9 3.89999H10.4C11 3.89999 11.5 3.89999 11.9 3.89999C12.3 3.89999 12.7 3.99999 13 4.09999C13.3 4.19999 13.5 4.29999 13.7 4.49999C13.9 4.69999 14.1 4.89999 14.3 5.09999C14.6 4.59999 15.1 4.29999 15.6 4.09999C16 3.99999 16.9 3.89999 18.1 3.89999H19.2V5.59999C18.1 5.59999 17.3 5.69999 17 5.99999C16.7 6.19999 16.5 6.79999 16.5 7.59999V21.5C16.5 22.3 16.7 22.8 17.1 23.1C17.5 23.4 18.2 23.5 19.3 23.5V25.2H18.2C17 25.2 16.1 25.1 15.6 25C15.1 24.9 14.7 24.5 14.3 24C14.1 24.2 13.9 24.4 13.7 24.6C13.5 24.8 13.3 24.9 13 25C12.6 25 12.3 25 11.9 25C11.5 25 11 25 10.4 25H10.2V23.3C10.9 23.2 11.4 23 11.7 22.8C11.9 22.5 12.1 22.1 12.1 21.4V7.49999C12.1 6.89999 12 6.39999 11.7 6.09999C11.5 5.79999 11 5.59999 10.2 5.59999H9.2C8.5 5.59999 8 5.79999 7.8 6.09999C7.4 6.39999 7.3 6.89999 7.3 7.49999Z" fill="black"/>
<path d="M28.8 14.9V20.9C28.8 21.8 28.9 22.4 29.2 22.8C29.4 23.2 29.9 23.4 30.6 23.4C31.1 23.4 31.5 23.3 31.9 23.1C32.3 22.9 32.7 22.6 33.2 22.2C32.5 21.5 32.2 20.8 32.2 20.3C32.2 19.6 32.5 19 33 18.5C33.5 18 34.1 17.7 34.8 17.7C35.5 17.7 36.2 17.9 36.8 18.3C37.4 18.7 37.7 19.4 37.7 20.3C37.7 20.6 37.6 21 37.4 21.4C37.2 21.8 37.1 22.2 37.1 22.5C37.1 23.3 37.5 24 38.3 24.6L37.2 25.3C36.8 25.1 36.4 24.8 36.1 24.6C35.8 24.4 35.4 24.1 35.1 23.9C34.2 24.5 33.5 24.9 32.8 25.1C32.2 25.3 31.4 25.4 30.5 25.4C28.7 25.4 27.4 24.9 26.5 24C26.3 24.2 26.1 24.4 25.9 24.6C25.7 24.8 25.5 24.9 25.2 25C24.9 25 24.6 25 24.2 25C23.8 25 23.3 25 22.7 25H21.6V23.3C22.7 23.3 23.5 23.2 23.8 22.9C24.1 22.6 24.3 22.1 24.3 21.3V7.5C24.3 6.7 24.1 6.2 23.8 5.9C23.5 5.7 22.7 5.5 21.6 5.5V3.9H22.7C23.3 3.9 23.8 3.9 24.2 3.9C24.6 3.9 25 4 25.3 4.1C25.6 4.2 25.8 4.3 26 4.5C26.2 4.7 26.4 4.9 26.6 5.1C27.3 4.2 28.7 3.7 30.8 3.7C32.6 3.7 34.1 4.1 35.4 4.9C35.7 4.7 36 4.5 36.3 4.3C36.6 4.1 36.9 3.9 37.3 3.7L38.4 4.4C37.6 5.1 37.2 5.8 37.2 6.5C37.2 6.9 37.3 7.3 37.4 7.5C37.5 7.8 37.6 8.1 37.6 8.6C37.6 9.4 37.3 10 36.8 10.4C36.3 10.8 35.6 11 34.9 11C34.2 11 33.6 10.8 33.2 10.3C32.7 9.8 32.5 9.3 32.5 8.7C32.5 8 32.9 7.3 33.8 6.4C33 5.9 32.2 5.7 31.4 5.7C30.5 5.7 29.9 5.9 29.6 6.2C29.3 6.5 29.1 7 29.1 7.8V13H30.5C31.1 13 31.7 13 32.3 13C32.9 13 33.4 12.9 33.9 12.9C33.9 13.2 33.8 13.5 33.6 13.7C33.4 13.9 33.2 14.1 32.9 14.2C33.2 14.3 33.5 14.5 33.6 14.7C33.8 14.9 33.8 15.2 33.8 15.4C33.2 15 32.6 15 32 15C31.4 15 30.8 15 30.2 15H28.8V14.9Z" fill="black"/>
<path d="M43.3 6.3C44.1 7.2 44.6 8 44.6 8.7C44.6 9.4 44.4 10 43.9 10.4C43.4 10.8 42.9 11 42.2 11C41.5 11 40.9 10.8 40.3 10.3C39.8 9.9 39.5 9.3 39.5 8.6C39.5 8.5 39.5 8.4 39.6 8.2C39.6 8 39.7 7.8 39.7 7.6C39.8 7.4 39.8 7.2 39.8 7C39.8 6.8 39.9 6.6 39.9 6.5C39.9 5.8 39.5 5.1 38.7 4.4L39.8 3.7C40.1 3.9 40.4 4.1 40.7 4.3C41 4.5 41.2 4.7 41.5 4.9C42.8 4.1 44 3.7 45.3 3.7C46.5 3.7 47.7 4.1 48.9 4.9C50.1 4.1 51.3 3.7 52.5 3.7C53.8 3.7 55 4.1 56.3 4.9C56.6 4.7 56.8 4.5 57.1 4.3C57.4 4 57.7 3.8 58 3.7L59.1 4.4C58.3 5.1 57.9 5.8 57.9 6.5C57.9 6.8 58 7.2 58.1 7.6C58.2 8.1 58.3 8.4 58.3 8.6C58.3 9.3 58 9.9 57.5 10.3C57 10.7 56.3 11 55.6 11C54.9 11 54.3 10.8 53.9 10.4C53.4 10 53.2 9.4 53.2 8.7C53.2 8.3 53.3 8 53.5 7.6C53.7 7.2 54 6.8 54.5 6.4C54 5.9 53.4 5.7 52.8 5.7C52.1 5.7 51.6 5.9 51.4 6.4C51.2 6.9 51.1 7.4 51.1 8.1V21.6C51.1 22.4 51.3 22.9 51.6 23.2C52 23.5 52.7 23.6 53.8 23.6V25.3H52.7C52.1 25.3 51.6 25.3 51.2 25.3C50.8 25.3 50.4 25.2 50.1 25.1C49.8 25 49.6 24.9 49.4 24.7C49.2 24.5 49 24.3 48.9 24.1C48.5 24.6 48.1 24.9 47.6 25.1C47.1 25.2 46.2 25.3 45 25.3H43.8V23.6C44.9 23.6 45.6 23.5 46 23.2C46.4 22.9 46.5 22.4 46.5 21.6V8C46.5 7.2 46.4 6.6 46.2 6.2C46 5.8 45.6 5.6 44.9 5.6C44.3 5.5 43.7 5.8 43.3 6.3Z" fill="black"/>
<path d="M67.5 14.9V20.9C67.5 21.8 67.6 22.4 67.9 22.8C68.1 23.2 68.6 23.4 69.3 23.4C69.8 23.4 70.2 23.3 70.6 23.1C71 22.9 71.4 22.6 71.9 22.2C71.2 21.5 70.9 20.8 70.9 20.3C70.9 19.6 71.2 19 71.7 18.5C72.2 18 72.8 17.7 73.5 17.7C74.2 17.7 74.9 17.9 75.5 18.3C76.1 18.7 76.4 19.4 76.4 20.3C76.4 20.6 76.3 21 76.1 21.4C75.9 21.8 75.8 22.2 75.8 22.5C75.8 23.3 76.2 24 77 24.6L75.9 25.3C75.5 25.1 75.1 24.8 74.8 24.6C74.5 24.4 74.1 24.1 73.8 23.9C72.9 24.5 72.2 24.9 71.5 25.1C70.9 25.3 70.1 25.4 69.2 25.4C67.4 25.4 66.1 24.9 65.2 24C65 24.2 64.8 24.4 64.6 24.6C64.4 24.8 64.2 24.9 63.9 25C63.7 25 63.3 25 62.9 25C62.5 25 62 25 61.4 25H60.3V23.3C61.4 23.3 62.2 23.2 62.5 22.9C62.8 22.6 63 22.1 63 21.3V7.5C63 6.7 62.8 6.2 62.5 5.9C62.2 5.7 61.4 5.5 60.3 5.5V3.9H61.4C62 3.9 62.5 3.9 62.9 3.9C63.3 4 63.7 4 64 4.1C64.3 4.2 64.5 4.3 64.7 4.5C64.9 4.7 65.1 4.9 65.3 5.1C66 4.2 67.4 3.7 69.5 3.7C71.3 3.7 72.8 4.1 74.1 4.9C74.4 4.7 74.7 4.5 75 4.3C75.3 4.1 75.6 3.9 76 3.7L77 4.3C76.2 5 75.8 5.7 75.8 6.4C75.8 6.8 75.9 7.2 76 7.4C76.1 7.7 76.2 8 76.2 8.5C76.2 9.3 75.9 9.9 75.4 10.3C74.9 10.7 74.2 10.9 73.5 10.9C72.8 10.9 72.2 10.7 71.8 10.2C71.3 9.7 71.1 9.2 71.1 8.6C71.1 7.9 71.5 7.2 72.4 6.3C71.6 5.8 70.8 5.6 70 5.6C69.1 5.6 68.5 5.8 68.2 6.1C67.9 6.4 67.7 6.9 67.7 7.7V12.9H69C69.6 12.9 70.2 12.9 70.8 12.9C71.4 12.9 71.9 12.8 72.4 12.8C72.4 13.1 72.3 13.4 72.1 13.6C71.9 13.8 71.7 14 71.4 14.1C71.7 14.2 72 14.4 72.1 14.6C72.3 14.8 72.3 15.1 72.3 15.3C71.9 15 71.3 15 70.8 15C70.2 15 69.6 15 69 15H67.5V14.9Z" fill="black"/>
<path d="M81.2 21.5V7.5C81.2 6.7 81 6.2 80.7 5.9C80.4 5.7 79.6 5.5 78.5 5.5V3.9H79.6C80.2 3.9 80.7 3.9 81.1 3.9C81.5 3.9 81.9 4 82.2 4.1C82.5 4.2 82.7 4.3 82.9 4.5C83.1 4.7 83.3 4.9 83.5 5.1C84.5 4.2 86.1 3.7 88.3 3.7C89.5 3.7 90.5 3.8 91.4 4.1C92.3 4.4 93.1 4.8 93.6 5.4C94.7 6.4 95.2 7.9 95.2 9.7C95.2 11.6 94.5 13.1 93.1 14.2C91.7 15.2 90.2 15.6 88.3 15.6C87.7 15.6 86.9 15.5 85.8 15.4V21.4C85.8 22.2 86 22.7 86.4 23C86.8 23.3 87.5 23.4 88.6 23.4V25.1H87.5C86.9 25.1 86.3 25.1 85.9 25.1C85.5 25.1 85.1 25 84.8 24.9C84.5 24.8 84.3 24.7 84.1 24.5C83.9 24.3 83.7 24.1 83.5 23.9C83.3 24.1 83.1 24.3 82.9 24.5C82.7 24.7 82.5 24.8 82.2 24.9C81.9 25 81.6 25 81.2 25C80.8 25 80.3 25 79.7 25H78.6V23.3C79.7 23.3 80.4 23.2 80.8 22.9C81 22.8 81.2 22.2 81.2 21.5ZM85.8 7.4V13.1C86.1 13.1 86.3 13.2 86.5 13.2C86.7 13.2 86.9 13.2 87.1 13.2C88.3 13.2 89.1 13 89.6 12.6C90.1 12.2 90.3 11.5 90.3 10.5V8.4C90.3 7.5 90.1 6.8 89.6 6.3C89.2 5.8 88.5 5.6 87.7 5.6C86.5 5.6 85.8 6.2 85.8 7.4Z" fill="black"/>
<path d="M112.3 3.7L113.2 4.5C112.9 4.8 112.6 5.1 112.3 5.4C112 5.7 111.8 6.1 111.8 6.5C111.8 6.7 111.9 7 112 7.5C112.1 7.9 112.2 8.4 112.2 8.8C112.2 9.4 112 9.9 111.5 10.4C111.1 10.8 110.5 11.1 109.7 11.1C109 11.1 108.5 10.9 108.1 10.4C107.7 9.9 107.5 9.4 107.5 8.8C107.5 8.5 107.6 8.1 107.8 7.8C108 7.4 108.3 7 108.7 6.6C108.3 6.4 107.9 6.2 107.5 6C107.1 5.9 106.6 5.8 106.2 5.8C105.4 5.8 104.9 5.9 104.6 6.2C104.3 6.5 104.2 7 104.2 7.6V13.3C104.6 13.2 105.1 13 105.7 13C106.3 12.9 106.9 12.9 107.7 12.9C108.4 12.9 109.1 13 109.8 13.2C110.5 13.4 111.1 13.8 111.6 14.3C112.1 14.8 112.5 15.4 112.8 16.2C113.1 17 113.3 17.9 113.3 19.1C113.3 20 113.2 20.8 112.9 21.5C112.6 22.3 112.2 23 111.6 23.5C111 24.1 110.3 24.6 109.4 24.9C108.5 25.2 107.5 25.4 106.3 25.4C105.5 25.4 104.6 25.3 103.7 25C102.8 24.7 102.2 24.4 101.9 24C101.7 24.2 101.5 24.4 101.3 24.6C101.1 24.8 100.9 24.9 100.6 25C100.3 25 100 25 99.6 25C99.2 25 98.7 25 98.1 25H97V23.3C98.1 23.3 98.8 23.2 99.2 22.9C99.6 22.6 99.7 22.1 99.7 21.3V7.5C99.7 6.7 99.5 6.2 99.2 5.9C98.8 5.7 98.1 5.5 97 5.5V3.9H98C98.6 3.9 99.1 3.9 99.5 3.9C99.9 3.9 100.3 4 100.6 4.1C100.9 4.2 101.1 4.3 101.3 4.5C101.5 4.7 101.7 4.9 101.9 5.1C102.3 4.6 102.8 4.3 103.6 4C104.4 3.8 105.3 3.7 106.3 3.7C107.2 3.7 107.9 3.8 108.5 4C109.1 4.2 109.7 4.5 110.4 4.9C110.7 4.7 110.9 4.5 111.3 4.3C111.6 4.1 112 3.9 112.3 3.7ZM104.2 15.3V21.5C104.2 22.8 104.9 23.4 106.2 23.4C106.6 23.4 107 23.4 107.3 23.3C107.6 23.2 107.8 23.1 108 22.8C108.1 22.6 108.3 22.2 108.3 21.8C108.4 21.4 108.4 20.8 108.4 20.2V18.4C108.4 17.7 108.4 17.1 108.3 16.6C108.2 16.2 108.1 15.8 107.9 15.6C107.7 15.4 107.5 15.2 107.2 15.1C106.9 15 106.6 15 106.3 15C106 15 105.6 15 105.2 15.1C104.8 15.1 104.5 15.2 104.2 15.3Z" fill="black"/>
<path d="M134.1 3.89999V5.59999C133 5.59999 132.3 5.69999 131.9 5.99999C131.6 6.19999 131.4 6.79999 131.4 7.59999V20.6C131.4 22.2 130.9 23.4 129.8 24.3C128.7 25.2 127.1 25.6 124.9 25.6C123.2 25.6 121.7 25.1 120.4 24C120.1 24.3 119.8 24.5 119.4 24.8C119 25.1 118.6 25.3 118.1 25.6L117.1 25C117.9 24.3 118.3 23.6 118.3 22.9C118.3 22.5 118.2 22.1 118.1 21.7C118 21.2 117.9 20.8 117.9 20.5C117.9 19.7 118.2 19.1 118.7 18.6C119.2 18.1 119.9 17.9 120.6 17.9C121.4 17.9 122.1 18.1 122.5 18.6C122.9 19.1 123.2 19.8 123.2 20.6C123.2 20.9 123.1 21.3 122.9 21.7C122.7 22.1 122.4 22.4 122.1 22.7C122.9 23.4 123.7 23.7 124.5 23.7C125.3 23.7 125.9 23.4 126.3 22.9C126.7 22.4 127 21.6 127 20.5V15.4C125.8 15.6 125 15.6 124.4 15.6C123.4 15.6 122.6 15.5 121.8 15.4C121 15.3 120.3 15 119.7 14.7C119.1 14.3 118.7 13.8 118.3 13.2C118 12.5 117.8 11.7 117.8 10.6V7.49999C117.8 6.69999 117.6 6.19999 117.2 5.89999C116.8 5.69999 116.4 5.49999 116 5.49999H115.3V3.89999H116.6C117.6 3.89999 118.3 3.99999 118.7 4.09999C119.1 4.29999 119.5 4.59999 119.9 5.09999C120.3 4.59999 120.7 4.29999 121.2 4.09999C121.7 3.99999 122.5 3.89999 123.5 3.89999H123.9V5.59999H123.5C123.1 5.59999 122.8 5.69999 122.5 5.99999C122.2 6.19999 122.1 6.79999 122.1 7.59999V10.6C122.1 11.6 122.3 12.3 122.8 12.7C123.3 13.1 124.1 13.3 125.3 13.3C125.5 13.3 125.8 13.3 126 13.3C126.2 13.3 126.5 13.3 126.8 13.2V7.39999C126.8 6.79999 126.7 6.29999 126.4 5.99999C126.1 5.69999 125.8 5.59999 125.3 5.59999H125V3.89999H125.3C125.9 3.89999 126.4 3.89999 126.7 3.99999C127.1 3.99999 127.4 4.09999 127.7 4.19999C128 4.29999 128.2 4.39999 128.4 4.59999C128.6 4.79999 128.8 4.99999 129 5.19999C129.2 4.99999 129.4 4.79999 129.6 4.59999C129.8 4.39999 130.1 4.29999 130.3 4.19999C130.6 4.09999 130.9 3.99999 131.3 3.99999C131.7 3.99999 132.2 3.89999 132.8 3.89999H134.1Z" fill="black"/>
<path d="M139.1 21.5V7.5C139.1 6.7 138.9 6.2 138.6 5.9C138.3 5.7 137.5 5.5 136.4 5.5V3.9H137.5C138.1 3.9 138.6 3.9 139 3.9C139.4 3.9 139.8 4 140.1 4.1C140.4 4.2 140.6 4.3 140.8 4.5C141 4.7 141.2 4.9 141.4 5.1C142.4 4.2 144 3.7 146.2 3.7C147.4 3.7 148.4 3.8 149.3 4.1C150.2 4.4 151 4.8 151.5 5.4C152.6 6.4 153.1 7.9 153.1 9.7C153.1 11.6 152.4 13.1 151 14.2C149.6 15.2 148.1 15.6 146.2 15.6C145.6 15.6 144.8 15.5 143.7 15.4V21.4C143.7 22.2 143.9 22.7 144.3 23C144.7 23.3 145.4 23.4 146.5 23.4V25.1H145.4C144.8 25.1 144.2 25.1 143.8 25.1C143.4 25.1 143 25 142.7 24.9C142.4 24.8 142.2 24.7 142 24.5C141.8 24.3 141.6 24.1 141.4 23.9C141.2 24.1 141 24.3 140.8 24.5C140.6 24.7 140.4 24.8 140.1 24.9C139.8 25 139.5 25 139 25.1C138.6 25.1 138.1 25.1 137.5 25.1H136.4V23.4C137.5 23.4 138.2 23.3 138.6 23C138.9 22.8 139.1 22.2 139.1 21.5ZM143.7 7.4V13.1C144 13.1 144.2 13.2 144.4 13.2C144.6 13.2 144.8 13.2 145 13.2C146.2 13.2 147 13 147.5 12.6C148 12.2 148.2 11.5 148.2 10.5V8.4C148.2 7.5 148 6.8 147.5 6.3C147.1 5.8 146.4 5.6 145.6 5.6C144.4 5.6 143.7 6.2 143.7 7.4Z" fill="black"/>
<path d="M168.6 4.9C168.9 4.7 169.1 4.6 169.4 4.3C169.7 4.1 170 3.9 170.4 3.7L171.5 4.4C170.7 5.1 170.4 5.8 170.4 6.5C170.4 6.7 170.4 7.1 170.5 7.5C170.6 8 170.6 8.3 170.6 8.6C170.6 9.2 170.4 9.8 170 10.2C169.6 10.7 169 10.9 168.1 10.9C167.4 10.9 166.8 10.7 166.3 10.2C165.8 9.8 165.6 9.2 165.6 8.5C165.6 8.1 165.7 7.8 165.9 7.3C166.1 6.9 166.4 6.5 166.7 6.1C166.3 5.9 165.9 5.7 165.5 5.6C165.1 5.5 164.7 5.4 164.3 5.4C163.4 5.4 162.8 5.6 162.5 6C162.2 6.4 162 7.1 162 8V21.3C162 22 162.2 22.5 162.6 22.8C163 23.1 163.7 23.2 164.8 23.2H165.6V24.9H163.7C163.1 24.9 162.5 24.9 162.1 24.9C161.7 24.9 161.3 24.8 161 24.7C160.7 24.6 160.5 24.5 160.3 24.3C160.1 24.1 159.9 23.9 159.7 23.7C159.5 23.9 159.3 24.1 159.1 24.3C158.9 24.5 158.7 24.6 158.4 24.7C158.1 24.8 157.8 24.8 157.3 24.9C156.9 24.9 156.4 24.9 155.8 24.9H154.7V23.2C155.8 23.2 156.6 23 156.9 22.8C157.2 22.6 157.4 22 157.4 21.2V7.5C157.4 6.7 157.2 6.2 156.9 5.9C156.6 5.7 155.8 5.5 154.7 5.5V3.9H155.8C156.4 3.9 156.9 3.9 157.3 3.9C157.7 3.9 158.1 4 158.4 4.1C158.7 4.2 158.9 4.3 159.1 4.5C159.3 4.7 159.5 4.9 159.7 5.1C160.4 4.2 161.7 3.7 163.8 3.7C165.7 3.7 167.3 4.1 168.6 4.9Z" fill="black"/>
<path d="M185.4 25.4C185 25.1 184.7 24.9 184.3 24.7C184 24.5 183.7 24.3 183.4 24.1C182.4 25 181.3 25.4 180 25.4C178.6 25.4 177.5 25.1 176.5 24.6C175.5 24 174.7 23.3 174.1 22.3C173.5 21.3 173 20.2 172.7 18.9C172.4 17.6 172.2 16.2 172.2 14.7C172.2 13.2 172.4 11.8 172.7 10.4C173 9.09999 173.5 7.89999 174.1 6.99999C174.7 5.99999 175.6 5.19999 176.5 4.69999C177.5 4.09999 178.6 3.89999 180 3.89999C181.3 3.89999 182.4 4.39999 183.4 5.29999C183.7 5.09999 184 4.89999 184.3 4.69999C184.6 4.49999 185 4.19999 185.4 3.99999L186.5 4.69999C186.1 4.99999 185.9 5.39999 185.7 5.69999C185.5 5.99999 185.5 6.39999 185.5 6.79999C185.5 7.39999 185.5 7.79999 185.6 8.09999C185.7 8.39999 185.7 8.69999 185.7 8.89999C185.7 9.59999 185.5 10.2 185 10.7C184.6 11.2 183.9 11.4 183.1 11.4C182.2 11.4 181.6 11.1 181.2 10.6C180.8 9.99999 180.6 9.49999 180.6 8.89999C180.6 8.29999 180.9 7.59999 181.6 6.89999C181.2 6.19999 180.5 5.89999 179.7 5.89999C178.9 5.89999 178.3 6.09999 177.9 6.59999C177.5 7.09999 177.3 7.79999 177.3 8.69999V21C177.3 21.9 177.5 22.6 177.9 23.1C178.3 23.6 178.9 23.8 179.7 23.8C180.5 23.8 181.2 23.5 181.6 22.8C181 22 180.6 21.4 180.6 20.8C180.6 20.2 180.8 19.7 181.3 19.2C181.8 18.7 182.3 18.5 183 18.5C183.9 18.5 184.6 18.7 185.1 19.2C185.5 19.6 185.8 20.2 185.8 20.9C185.8 21.1 185.8 21.4 185.7 21.7C185.6 22 185.6 22.4 185.6 23C185.6 23.4 185.7 23.7 185.8 24.1C186 24.4 186.2 24.8 186.6 25.1L185.4 25.4Z" fill="black"/>
<path d="M197.2 15.5L196.1 16.9V21.5C196.1 22.3 196.3 22.8 196.6 23C196.9 23.3 197.6 23.4 198.6 23.4V25.1H197.8C197.2 25.1 196.6 25.1 196.2 25.1C195.8 25.1 195.4 25 195.1 24.9C194.8 24.8 194.6 24.7 194.4 24.5C194.2 24.3 194 24.1 193.8 23.9C193.6 24.1 193.4 24.3 193.2 24.5C193 24.7 192.8 24.8 192.5 24.9C192.2 25 191.9 25 191.4 25.1C191 25.1 190.5 25.1 189.9 25.1H188.8V23.4C189.9 23.4 190.7 23.3 191 23C191.3 22.7 191.5 22.2 191.5 21.4V7.49999C191.5 6.69999 191.3 6.19999 191 5.89999C190.7 5.69999 189.9 5.49999 188.8 5.49999V3.89999H189.9C190.5 3.89999 191 3.89999 191.4 3.89999C191.8 3.89999 192.2 3.99999 192.5 4.09999C192.8 4.19999 193 4.29999 193.2 4.49999C193.4 4.69999 193.6 4.89999 193.8 5.09999C194 4.89999 194.2 4.69999 194.4 4.49999C194.6 4.29999 194.8 4.19999 195.1 4.09999C195.4 3.99999 195.7 3.99999 196.2 3.89999C196.6 3.89999 197.2 3.89999 197.8 3.89999H198.6V5.59999C197.6 5.59999 197 5.69999 196.6 5.99999C196.3 6.29999 196.1 6.79999 196.1 7.49999V13.5L200.8 7.29999C201.1 6.89999 201.2 6.49999 201.2 6.29999C201.2 5.79999 200.8 5.59999 200 5.59999V3.89999H200.4C201.4 3.89999 202.1 3.99999 202.5 4.09999C202.9 4.19999 203.2 4.49999 203.4 4.89999C203.9 4.29999 204.6 3.99999 205.6 3.99999H206.6V5.69999C206 5.69999 205.5 5.79999 205.1 5.99999C204.7 6.19999 204.4 6.49999 204 6.99999L200.4 11.9L204.9 22C205.2 22.6 205.4 23 205.7 23.2C206 23.4 206.5 23.5 207.2 23.5V25.2H206.4C205.4 25.2 204.7 25.1 204.3 25C203.9 24.9 203.5 24.7 203.2 24.3C202.7 24.8 202 25.1 201.2 25.2L197.2 15.5Z" fill="black"/>
<path d="M208.6 25.1V23.4C209.7 23.4 210.4 23.3 210.8 23C211.2 22.7 211.3 22.2 211.3 21.4V7.49999C211.3 6.69999 211.1 6.19999 210.8 5.89999C210.5 5.69999 209.7 5.49999 208.6 5.49999V3.89999H209.7C210.3 3.89999 210.8 3.89999 211.2 3.89999C211.6 3.89999 212 3.99999 212.3 4.09999C212.6 4.19999 212.8 4.29999 213 4.49999C213.2 4.69999 213.4 4.89999 213.6 5.09999C213.8 4.89999 214 4.69999 214.2 4.49999C214.4 4.29999 214.6 4.19999 214.9 4.09999C215.2 3.99999 215.5 3.99999 216 3.89999C216.4 3.89999 216.9 3.89999 217.6 3.89999H217.8V5.59999C217.1 5.59999 216.7 5.79999 216.4 6.09999C216.1 6.39999 216 6.89999 216 7.59999V17L221.4 7.59999C221.4 6.89999 221.3 6.39999 221 6.09999C220.7 5.79999 220.3 5.59999 219.6 5.59999V3.89999H219.8C220.4 3.89999 220.9 3.89999 221.3 3.89999C221.7 3.89999 222.1 3.99999 222.4 4.09999C222.7 4.19999 222.9 4.29999 223.1 4.49999C223.3 4.69999 223.5 4.89999 223.7 5.09999C223.9 4.89999 224.1 4.69999 224.2 4.49999C224.4 4.29999 224.6 4.19999 224.9 4.09999C225.2 3.99999 225.5 3.99999 225.9 3.89999C226.3 3.89999 226.8 3.89999 227.4 3.89999H228.6V5.59999C227.5 5.59999 226.7 5.69999 226.4 5.99999C226 6.19999 225.9 6.79999 225.9 7.59999V21.5C225.9 22.3 226.1 22.8 226.4 23.1C226.8 23.4 227.5 23.5 228.6 23.5V25.2H227.4C226.8 25.2 226.3 25.2 225.9 25.2C225.5 25.2 225.1 25.1 224.9 25C224.6 24.9 224.4 24.8 224.2 24.6C224 24.4 223.8 24.2 223.7 24C223.5 24.2 223.3 24.4 223.1 24.6C222.9 24.8 222.6 24.9 222.4 25C222.1 25.1 221.8 25.1 221.3 25.2C220.9 25.2 220.4 25.2 219.8 25.2H219.6V23.5C220.2 23.5 220.7 23.3 221 23C221.3 22.7 221.4 22.2 221.4 21.5V12.1L216 21.5C216 22.2 216.1 22.7 216.4 23C216.7 23.3 217.1 23.5 217.8 23.5V25.2H217.6C217 25.2 216.4 25.2 216 25.2C215.6 25.2 215.2 25.1 214.9 25C214.6 24.9 214.4 24.8 214.2 24.6C214 24.4 213.8 24.2 213.6 24C213.4 24.2 213.2 24.4 213 24.6C212.8 24.8 212.6 24.9 212.3 25C212 25.1 211.7 25.1 211.2 25.2C210.8 25.2 210.3 25.2 209.7 25.2H208.6V25.1Z" fill="black"/>
<path d="M230.9 25.1V23.4C232 23.4 232.7 23.3 233.1 23C233.5 22.7 233.6 22.2 233.6 21.4V7.5C233.6 6.7 233.4 6.2 233.1 5.9C232.8 5.7 232 5.5 230.9 5.5V3.9H232C232.6 3.9 233.1 3.9 233.5 3.9C233.9 3.9 234.3 4 234.6 4.1C234.9 4.2 235.1 4.3 235.3 4.5C235.5 4.7 235.7 4.9 235.9 5.1C236.1 4.9 236.3 4.7 236.5 4.5C236.7 4.3 236.9 4.2 237.2 4.1C237.5 4 237.8 4 238.3 3.9C238.7 3.9 239.2 3.9 239.9 3.9H240.1V5.6C239.4 5.6 239 5.8 238.7 6.1C238.4 6.4 238.3 6.9 238.3 7.6V17L243.7 7.6C243.7 6.9 243.6 6.4 243.3 6.1C243 5.8 242.6 5.6 241.9 5.6V3.9H242.1C242.7 3.9 243.2 3.9 243.6 3.9C244 3.9 244.4 4 244.7 4.1C245 4.2 245.2 4.3 245.4 4.5C245.6 4.7 245.8 4.9 246 5.1C246.2 4.9 246.4 4.7 246.5 4.5C246.7 4.3 246.9 4.2 247.2 4.1C247.5 4 247.8 4 248.2 3.9C248.6 3.9 249.1 3.9 249.7 3.9H250.9V5.6C249.8 5.6 249 5.7 248.7 6C248.3 6.2 248.2 6.8 248.2 7.6V21.5C248.2 22.3 248.4 22.8 248.7 23.1C249.1 23.4 249.8 23.5 250.9 23.5V25.2H249.7C249.1 25.2 248.6 25.2 248.2 25.2C247.8 25.2 247.4 25.1 247.2 25C246.9 24.9 246.7 24.8 246.5 24.6C246.3 24.4 246.1 24.2 246 24C245.8 24.2 245.6 24.4 245.4 24.6C245.2 24.8 244.9 24.9 244.7 25C244.4 25.1 244.1 25.1 243.6 25.2C243.2 25.2 242.7 25.2 242.1 25.2H241.9V23.5C242.5 23.5 243 23.3 243.3 23C243.6 22.7 243.7 22.2 243.7 21.5V12.1L238.3 21.5C238.3 22.2 238.4 22.7 238.7 23C239 23.3 239.4 23.5 240.1 23.5V25.2H239.9C239.3 25.2 238.7 25.2 238.3 25.2C237.9 25.2 237.5 25.1 237.2 25C236.9 24.9 236.7 24.8 236.5 24.6C236.3 24.4 236.1 24.2 235.9 24C235.7 24.2 235.5 24.4 235.3 24.6C235.1 24.8 234.9 24.9 234.6 25C234.3 25.1 234 25.1 233.5 25.2C233.1 25.2 232.6 25.2 232 25.2H230.9V25.1ZM242.2 0H244.7C244.7 0.8 244.3 1.4 243.6 2C242.9 2.5 242 2.8 241 2.8C239.9 2.8 239.1 2.5 238.4 2C237.7 1.5 237.3 0.8 237.3 0H239.9C240 0.5 240.4 0.8 241.1 0.8C241.7 0.8 242.1 0.5 242.2 0Z" fill="black"/>
<path d="M263.1 22.2C259.7 22.2 257.6 20.2 257.6 17.7C257.6 10.7 268.1 4.10001 275.1 4.10001C279.6 4.10001 282.5 6.00001 282.5 11.7C282.5 18.3 273.3 25.7 273.3 30.1C273.3 31.2 274 31.5 275 31.5C277.2 31.5 284.3 27.1 288.4 21.2C299 6.20001 305.8 4.10001 306.9 4.10001C307.1 4.10001 307.3 4.20001 307.3 4.40001C307.3 5.30001 300.7 5.00001 294.8 16.6C292 22.1 285.3 35.5 281.2 39.7C275.5 45.4 267.7 48.5 259.7 48.5C253.2 48.5 245.8 45 245.8 37.6C245.8 30.7 253.8 25.7 259.9 25.7C266.1 25.7 270.2 29.4 270.2 33.6C270.2 39.4 264.4 42.5 259.2 42.5C257.4 42.5 255 41.9 255 41.5C255 41.3 255.1 41.2 255.3 41.2C255.7 41.2 256.5 41.8 259.8 41.8C264.2 41.8 269.4 38.6 269.4 33.8C269.4 29 265.2 27.4 261.1 27.4C254.5 27.4 247.2 32 247.2 39.2C247.2 45.5 255 47.8 259.7 47.8C276.5 47.8 282 34.8 288.7 21.9C286.5 25.1 279 32 275.1 32C272.8 32 272.2 30.6 272.2 28.5C272.2 20.8 281.4 14.4 281.4 9.00001C281.4 5.80001 278.3 4.70001 275.6 4.70001C269.5 4.70001 258.6 10.4 258.6 17.6C258.6 19.9 260.6 21.3 262.8 21.3C265.7 21.3 269.3 19.3 272.4 15.7C275.9 11.6 275.7 7.30001 276.3 7.30001C276.5 7.30001 276.7 7.40001 276.7 7.70001C276.2 9.00001 274.4 22.2 263.1 22.2Z" fill="black"/>
<path d="M313.4 36.4C313.5 36.5 313.7 36.5 314 36.5C315.8 36.5 317.6 35.4 318.9 33.9C319.6 33.1 319.6 33 319.8 33C320 33 320.1 33.1 320.1 33.3C320.1 33.4 320 33.6 318.8 34.9C317.5 36.3 315.6 37.2 313.6 37.2C313.2 37.2 313.1 37.2 312.9 37.1C311.3 38.9 309.1 40.8 306.2 40.8C304.1 40.8 302.9 39 302.9 36.1C302.9 35.1 303.1 34 303.5 33H301C300.7 33.5 300.4 33.9 296.4 40.6L292.8 40.8C293.1 40.3 294 39.1 295 37.6L296.6 35.3C298.9 32 301.2 28.5 301.2 27.5C301.2 27 300.8 26.7 300.4 26.7C298.9 26.7 297.5 27.8 294.8 30.8C292.3 33.5 292.4 33.7 292.2 33.7C292 33.7 291.9 33.6 291.9 33.4C291.9 33.2 293.2 31.8 293.9 31C296.4 28.1 298.5 26.2 300.6 26.2C302 26.2 302.5 27.2 302.5 28.8C302.5 29.9 302 31.2 301.2 32.4H303.6C305.2 29 308.7 26.2 313.2 26.2C315.2 26.2 316.4 27.7 316.4 29.8C316.5 32 315 34.8 313.4 36.4ZM313.5 26.8C309.8 26.8 304.9 33.8 304.9 38.2C304.9 39.7 305.5 40.1 306.3 40.1C310.5 40.1 315.3 33.9 315.3 29.1C315.3 27.9 314.8 26.8 313.5 26.8Z" fill="black"/>
<path d="M329.7 40.8C330.8 38.9 337.2 29.4 337.2 27.6C337.2 27.1 337 26.9 336.5 26.8C334.3 26.5 325.4 38.2 323.9 40.5L320.5 40.8C325.6 32.7 328.5 28.4 328.5 27.5C328.5 26.9 328.2 26.8 327.7 26.8C326.2 26.8 324.4 28.4 322.7 30.2C320.2 32.8 319.7 33.7 319.5 33.7C319.3 33.7 319.2 33.5 319.2 33.4C319.2 33.2 320.4 32 322.3 29.8C324.7 27.1 326.5 26.2 327.7 26.2C329 26.2 329.8 26.9 329.8 28.2C329.8 30.5 327.9 33.4 326.8 35.3L326.9 35.4C328.7 33.4 333.9 26.2 336.7 26.2C337.9 26.2 338.5 26.9 338.5 28.6C338.5 30.9 336.9 33.5 335.9 35.2L336 35.3C337.8 33.2 343.1 26.2 346 26.2C347 26.2 347.8 27 347.8 28.9C347.8 32.3 342.7 36.4 342.4 39.1C342.3 39.7 342.7 40.3 343.2 40.3C344.1 40.3 346 38.9 348 36.9C351.5 33.2 351.3 33.1 351.6 33.1C351.8 33.1 351.9 33.2 351.9 33.4C351.9 33.7 350.3 35.4 348.9 36.8C346.3 39.5 344.6 40.9 343.1 40.9C341.5 40.9 340.8 39.5 340.8 37.5C340.8 33.1 346.4 29.3 346.4 27.3C346.4 27.1 346.2 26.8 345.7 26.8C342.7 26.8 334.2 38.3 332.8 40.5L329.7 40.8Z" fill="black"/>
<path d="M12.7 37.3V41.4C12.7 41.7 12.8 41.9 12.9 42.1C13 42.2 13.3 42.3 13.6 42.3V42.5H10.8V42.3C11.1 42.3 11.4 42.2 11.5 42.1C11.6 42 11.7 41.7 11.7 41.3V37.3H10.8C10.5 37.3 10.3 37.4 10.1 37.5C10 37.6 9.8 37.9 9.7 38.4H9.5L9.7 36.9H14.6L14.8 38.4H14.5C14.4 37.9 14.3 37.6 14.1 37.5C14 37.4 13.7 37.3 13.4 37.3H12.7Z" fill="black"/>
<path d="M23.8 40.5C23.7 41.2 23.4 41.7 23 42.1C22.6 42.5 22.1 42.7 21.6 42.7C21 42.7 20.4 42.4 19.9 41.9C19.4 41.4 19.2 40.7 19.2 39.8C19.2 38.9 19.4 38.2 19.9 37.6C20.4 37 21 36.8 21.7 36.8C22.3 36.8 22.9 37 23.2 37.4C23.6 37.8 23.8 38.4 23.8 39H20C20 39.1 20 39.2 20 39.2C20 39.8 20.2 40.4 20.5 40.9C20.9 41.4 21.3 41.7 21.9 41.7C22.7 41.7 23.2 41.3 23.5 40.4L23.8 40.5ZM22.6 38.6C22.6 38.1 22.5 37.8 22.3 37.5C22.1 37.3 21.8 37.1 21.5 37.1C21.2 37.1 20.9 37.2 20.6 37.5C20.4 37.8 20.2 38.1 20.2 38.5H22.6V38.6Z" fill="black"/>
<path d="M28.2 36.9H31V37.1C30.7 37.1 30.4 37.2 30.3 37.3C30.2 37.5 30.1 37.7 30.1 38.1V39.3C30.2 39.3 30.3 39.3 30.3 39.3C30.9 39.3 31.3 38.9 31.6 38.2C31.9 37.3 32.3 36.8 32.9 36.8C33.1 36.8 33.3 36.9 33.5 37C33.6 37.1 33.7 37.2 33.7 37.4C33.7 37.5 33.7 37.6 33.6 37.8C33.5 37.9 33.4 38 33.2 38C33.1 38 33 38 32.9 37.9C32.7 37.8 32.6 37.8 32.5 37.8C32.4 37.8 32.3 37.8 32.2 37.9C32.1 38 32 38.2 32 38.4C31.9 38.9 31.7 39.2 31.4 39.4C31.7 39.5 32 39.8 32.3 40.4C32.3 40.4 32.3 40.5 32.4 40.5L33 41.5C33.2 41.8 33.4 42 33.5 42.1C33.6 42.2 33.8 42.2 34 42.2V42.4H32.4L30.9 40C30.7 39.7 30.5 39.6 30.4 39.6C30.3 39.6 30.3 39.6 30.1 39.6V41.3C30.1 41.9 30.4 42.2 31 42.2V42.4H28.2V42.2C28.5 42.2 28.8 42.1 28.9 42C29 41.9 29.1 41.6 29.1 41.3V38C29.1 37.6 29 37.3 28.9 37.2C28.8 37.1 28.5 37 28.2 37V36.9Z" fill="black"/>
<path d="M43.1 40.4C43 41 42.7 41.6 42.2 42C41.8 42.4 41.3 42.7 40.7 42.7C39.9 42.7 39.3 42.4 38.9 41.8C38.5 41.2 38.2 40.6 38.2 39.8C38.2 38.9 38.5 38.2 39 37.6C39.5 37.1 40.2 36.8 41 36.8C41.5 36.8 42 36.9 42.4 37.2C42.8 37.5 43 37.8 43 38.1C43 38.2 42.9 38.3 42.8 38.4C42.7 38.5 42.6 38.5 42.4 38.5C42 38.5 41.8 38.3 41.8 37.9C41.8 37.6 41.7 37.4 41.5 37.3C41.4 37.2 41.1 37.1 40.8 37.1C40.3 37.1 39.9 37.3 39.6 37.7C39.3 38.1 39.2 38.6 39.2 39.2C39.2 39.9 39.4 40.5 39.7 41C40 41.5 40.5 41.7 41.1 41.7C42 41.7 42.5 41.2 42.8 40.3L43.1 40.4Z" fill="black"/>
<path d="M50.3 37.3V41.4C50.3 41.7 50.4 41.9 50.5 42.1C50.6 42.2 50.9 42.3 51.2 42.3V42.5H48.4V42.3C48.7 42.3 49 42.2 49.1 42.1C49.2 42 49.3 41.7 49.3 41.3V37.3H48.4C48.1 37.3 47.9 37.4 47.7 37.5C47.6 37.6 47.4 37.9 47.3 38.4H47L47.2 36.9H52.1L52.3 38.4H52C51.9 37.9 51.8 37.6 51.6 37.5C51.5 37.4 51.2 37.3 50.9 37.3H50.3Z" fill="black"/>
<path d="M56.7 36.9H59.3V37.1C59 37.1 58.8 37.2 58.7 37.3C58.6 37.4 58.5 37.7 58.5 38V40.9L61 38C61 37.5 60.7 37.2 60.2 37.2V37H62.8V37.2C62.5 37.2 62.2 37.3 62.1 37.4C62.1 37.4 62 37.7 62 38V41.3C62 41.6 62.1 41.9 62.2 42C62.3 42.1 62.6 42.2 62.9 42.2V42.4H60.3V42.2C60.6 42.2 60.8 42.1 60.9 42C61 41.9 61.1 41.6 61.1 41.3V38.4L58.6 41.3C58.6 41.6 58.7 41.9 58.8 42C58.9 42.1 59.1 42.2 59.4 42.2V42.4H56.8V42.2C57.4 42.2 57.7 41.9 57.7 41.3V38C57.7 37.6 57.6 37.4 57.5 37.3C57.4 37.2 57.1 37.1 56.8 37.1V36.9H56.7Z" fill="black"/>
<path d="M67.8 36.9H73V37.1C72.7 37.1 72.5 37.2 72.3 37.3C72.1 37.4 72.1 37.7 72.1 38.1V41.2C72.1 41.6 72.2 41.8 72.3 42C72.4 42.2 72.7 42.2 73 42.2V42.4H70.1V42.2C70.5 42.2 70.7 42.1 70.9 42C71 41.8 71.1 41.5 71.1 41.1V37.2H69.1V40.2C69.1 41.1 69 41.7 68.8 42C68.6 42.4 68.2 42.6 67.7 42.6C67.2 42.6 66.9 42.4 66.9 41.9C66.9 41.8 66.9 41.7 67 41.6C67.1 41.5 67.2 41.5 67.3 41.5C67.5 41.5 67.6 41.6 67.8 41.8C67.9 41.9 68 41.9 68.1 41.9C68.3 41.9 68.4 41.8 68.5 41.5C68.6 41.2 68.6 40.7 68.6 40V38.1C68.6 37.8 68.6 37.6 68.5 37.5C68.5 37.4 68.4 37.3 68.2 37.2C68.1 37.1 67.9 37.1 67.7 37.1V36.9H67.8Z" fill="black"/>
<path d="M79.3 39.3H80C80.6 39.3 81.1 39.3 81.4 39.4C81.7 39.5 82 39.7 82.2 39.9C82.4 40.1 82.5 40.4 82.5 40.8C82.5 41.1 82.4 41.5 82.1 41.7C81.9 42 81.6 42.2 81.2 42.3C80.9 42.4 80.4 42.4 79.8 42.4H77.3V42.2C77.6 42.2 77.9 42.1 78 42C78.1 41.9 78.2 41.6 78.2 41.3V38C78.2 37.7 78.1 37.5 78 37.3C77.9 37.2 77.6 37.1 77.3 37.1V36.9H80.2V37.1C79.9 37.1 79.6 37.2 79.4 37.3C79.2 37.4 79.1 37.7 79.1 38.2V39.3H79.3ZM79.3 42C79.6 42.1 79.8 42.1 79.9 42.1C80.4 42.1 80.7 42 81 41.7C81.2 41.5 81.4 41.2 81.4 40.8C81.4 40.4 81.3 40.1 81 39.9C80.8 39.7 80.4 39.6 80 39.6C79.7 39.6 79.5 39.6 79.2 39.7V42H79.3Z" fill="black"/>
<path d="M88.9 39.4H91.4V38C91.4 37.7 91.3 37.5 91.2 37.3C91.1 37.2 90.9 37.1 90.6 37.1V36.9H93.2V37.1C92.9 37.1 92.6 37.2 92.5 37.3C92.4 37.4 92.3 37.7 92.3 38V41.3C92.3 41.6 92.4 41.9 92.5 42C92.6 42.1 92.9 42.2 93.2 42.2V42.4H90.6V42.2C90.9 42.2 91.1 42.1 91.2 42C91.3 41.9 91.4 41.6 91.4 41.3V39.7H88.9V41.3C88.9 41.6 89 41.9 89.1 42C89.2 42.1 89.4 42.2 89.7 42.2V42.4H87V42.2C87.6 42.2 87.9 41.9 87.9 41.3V38C87.9 37.6 87.8 37.4 87.7 37.3C87.6 37.2 87.3 37.1 87 37.1V36.9H89.6V37.1C89.3 37.1 89.1 37.2 89 37.3C88.9 37.4 88.8 37.7 88.8 38V39.4H88.9Z" fill="black"/>
<path d="M103.4 39.5C103.4 40.3 103.1 41.1 102.5 41.7C101.9 42.3 101.3 42.6 100.5 42.6C99.8 42.6 99.2 42.3 98.6 41.8C98.1 41.3 97.8 40.6 97.8 39.8C97.8 39 98.1 38.3 98.6 37.7C99.1 37.1 99.8 36.7 100.7 36.7C101.4 36.7 102.1 37 102.6 37.5C103.1 38.1 103.4 38.8 103.4 39.5ZM102.3 40C102.3 39.2 102.1 38.6 101.8 38C101.5 37.4 101 37.2 100.4 37.2C99.9 37.2 99.6 37.4 99.3 37.8C99 38.2 98.9 38.7 98.9 39.4C98.9 40.2 99.1 40.8 99.4 41.4C99.7 42 100.2 42.3 100.8 42.3C101.2 42.3 101.6 42.1 101.9 41.7C102.2 41.2 102.3 40.7 102.3 40Z" fill="black"/>
<path d="M112.7 40.5C112.6 41.2 112.3 41.7 111.9 42.1C111.5 42.5 111 42.7 110.5 42.7C109.9 42.7 109.3 42.4 108.8 41.9C108.3 41.4 108.1 40.7 108.1 39.8C108.1 38.9 108.3 38.2 108.8 37.6C109.3 37 109.9 36.8 110.6 36.8C111.2 36.8 111.8 37 112.1 37.4C112.5 37.8 112.7 38.4 112.7 39H108.9C108.9 39.1 108.9 39.2 108.9 39.2C108.9 39.8 109.1 40.4 109.4 40.9C109.8 41.4 110.2 41.7 110.8 41.7C111.6 41.7 112.1 41.3 112.4 40.4L112.7 40.5ZM111.4 38.6C111.4 38.1 111.3 37.8 111.1 37.5C110.9 37.3 110.6 37.1 110.3 37.1C110 37.1 109.7 37.2 109.4 37.5C109.2 37.8 109 38.1 109 38.5H111.4V38.6Z" fill="black"/>
<path d="M123.8 36.9H130V37.1C129.7 37.1 129.4 37.2 129.3 37.3C129.2 37.4 129.1 37.7 129.1 38V41.3C129.1 41.6 129.2 41.9 129.3 42C129.4 42.1 129.7 42.2 130 42.2V42.4H127.4V42.2C127.7 42.2 127.9 42.1 128 42C128.1 41.9 128.2 41.6 128.2 41.3V37.2H125.7V41.3C125.7 41.6 125.8 41.9 125.9 42C126 42.1 126.2 42.2 126.5 42.2V42.4H123.9V42.2C124.5 42.2 124.8 41.9 124.8 41.3V38C124.8 37.6 124.7 37.4 124.6 37.3C124.5 37.2 124.2 37.1 123.9 37.1V36.9H123.8Z" fill="black"/>
<path d="M136.2 36.8V38C136.5 37.6 136.8 37.3 137.1 37C137.4 36.8 137.8 36.7 138.1 36.7C138.7 36.7 139.2 37 139.6 37.5C140 38 140.3 38.7 140.3 39.5C140.3 40.4 140 41.2 139.5 41.7C138.9 42.3 138.3 42.6 137.6 42.6C137.3 42.6 137.1 42.6 136.8 42.5C136.6 42.4 136.4 42.3 136.2 42.1V43.6C136.2 44.1 136.3 44.4 136.4 44.5C136.5 44.7 136.8 44.7 137.2 44.7V45H134.2V44.8C134.6 44.8 134.8 44.7 135 44.6C135.1 44.5 135.2 44.2 135.2 43.7V38.6C135.2 38.2 135.2 37.9 135.1 37.8C135 37.7 134.9 37.6 134.7 37.6C134.6 37.6 134.5 37.6 134.3 37.7L134.2 37.5L136 36.8H136.2ZM136.2 38.4V40.5C136.2 41 136.2 41.3 136.3 41.5C136.4 41.7 136.5 41.9 136.8 42.1C137 42.3 137.3 42.3 137.6 42.3C138.1 42.3 138.5 42.1 138.8 41.7C139.1 41.3 139.3 40.7 139.3 40C139.3 39.3 139.2 38.8 138.9 38.3C138.6 37.9 138.2 37.6 137.7 37.6C137.4 37.6 137.2 37.7 137 37.8C136.6 37.9 136.4 38.1 136.2 38.4Z" fill="black"/>
<path d="M150.5 39.5C150.5 40.3 150.2 41.1 149.6 41.7C149 42.3 148.4 42.6 147.6 42.6C146.9 42.6 146.3 42.3 145.7 41.8C145.2 41.3 144.9 40.6 144.9 39.8C144.9 39 145.2 38.3 145.7 37.7C146.2 37.1 146.9 36.7 147.8 36.7C148.5 36.7 149.2 37 149.7 37.5C150.2 38.1 150.5 38.8 150.5 39.5ZM149.4 40C149.4 39.2 149.2 38.6 148.9 38C148.6 37.4 148.1 37.2 147.5 37.2C147 37.2 146.7 37.4 146.4 37.8C146.1 38.2 146 38.7 146 39.4C146 40.2 146.2 40.8 146.5 41.4C146.8 42 147.3 42.3 147.9 42.3C148.3 42.3 148.7 42.1 149 41.7C149.3 41.2 149.4 40.7 149.4 40Z" fill="black"/>
<path d="M155.1 36.9H157.7V37.1C157.4 37.1 157.2 37.2 157.1 37.3C157 37.4 156.9 37.7 156.9 38V40.9L159.4 38C159.4 37.5 159.1 37.2 158.6 37.2V37H161.2V37.2C160.9 37.2 160.6 37.3 160.5 37.4C160.4 37.5 160.3 37.8 160.3 38.1V41.4C160.3 41.7 160.4 42 160.5 42.1C160.6 42.2 160.9 42.3 161.2 42.3V42.5H158.6V42.3C158.9 42.3 159.1 42.2 159.2 42.1C159.3 42 159.4 41.7 159.4 41.4V38.5L156.9 41.4C156.9 41.7 157 42 157.1 42.1C157.2 42.2 157.4 42.3 157.7 42.3V42.5H155.1V42.3C155.7 42.3 156 42 156 41.4V38C156 37.6 155.9 37.4 155.8 37.3C155.7 37.2 155.4 37.1 155.1 37.1V36.9Z" fill="black"/>
<path d="M165.8 36.9H166C166.1 37 166.2 37 166.3 37C166.4 37 166.5 37 166.7 36.9C167 36.8 167.4 36.7 167.7 36.7C168.3 36.7 168.8 36.8 169.2 37.1C169.5 37.4 169.7 37.7 169.7 38.1C169.7 38.8 169.2 39.2 168.2 39.4C169.4 39.6 169.9 40.1 169.9 40.9C169.9 41.4 169.7 41.8 169.2 42.1C168.8 42.4 168.2 42.6 167.6 42.6C166.7 42.6 166 42.3 165.4 41.6L165.6 41.5C166.2 42 166.9 42.2 167.5 42.2C167.9 42.2 168.2 42.1 168.4 41.8C168.6 41.6 168.8 41.3 168.8 40.9C168.8 40.5 168.7 40.2 168.4 40C168.1 39.8 167.7 39.7 167.2 39.7V39.3C167.6 39.3 168 39.2 168.2 39C168.5 38.8 168.6 38.5 168.6 38.1C168.6 37.8 168.5 37.5 168.3 37.3C168.1 37.1 167.8 37 167.5 37C166.7 37 166.2 37.5 166 38.5H165.8V36.9Z" fill="black"/>
<path d="M174.4 36.9H177C177.8 36.9 178.4 37 178.8 37.3C179.2 37.5 179.3 37.9 179.3 38.4C179.3 38.7 179.2 39 179 39.2C178.8 39.4 178.5 39.5 178.2 39.6C178.7 39.7 179 39.8 179.3 40.1C179.5 40.3 179.7 40.6 179.7 41C179.7 41.3 179.6 41.6 179.4 41.8C179.2 42 179 42.2 178.6 42.4C178.3 42.5 177.7 42.6 177 42.6H174.4V42.4C174.7 42.4 174.9 42.3 175.1 42.2C175.2 42.1 175.3 41.8 175.3 41.4V38C175.3 37.7 175.2 37.4 175.1 37.3C175 37.2 174.7 37.1 174.4 37.1V36.9ZM176.3 39.4C176.4 39.4 176.5 39.4 176.6 39.4C177.1 39.4 177.6 39.3 177.8 39.1C178.1 38.9 178.2 38.6 178.2 38.3C178.2 38 178.1 37.7 177.8 37.5C177.5 37.3 177.2 37.2 176.6 37.2C176.5 37.2 176.4 37.2 176.2 37.2V39.4H176.3ZM176.3 42C176.6 42.1 176.8 42.1 177.1 42.1C177.5 42.1 177.8 42 178.1 41.8C178.4 41.6 178.5 41.3 178.5 40.9C178.5 40.5 178.4 40.3 178.1 40.1C177.8 39.9 177.4 39.8 176.9 39.8C176.7 39.8 176.6 39.8 176.3 39.8V42Z" fill="black"/>
<path d="M190 39.5C190 40.3 189.7 41.1 189.1 41.7C188.5 42.3 187.9 42.6 187.1 42.6C186.4 42.6 185.8 42.3 185.2 41.8C184.7 41.3 184.4 40.6 184.4 39.8C184.4 39 184.7 38.3 185.2 37.7C185.7 37.1 186.4 36.7 187.3 36.7C188 36.7 188.7 37 189.2 37.5C189.7 38.1 190 38.8 190 39.5ZM188.9 40C188.9 39.2 188.7 38.6 188.4 38C188.1 37.4 187.6 37.2 187 37.2C186.5 37.2 186.2 37.4 185.9 37.8C185.6 38.2 185.5 38.7 185.5 39.4C185.5 40.2 185.7 40.8 186 41.4C186.3 42 186.8 42.3 187.4 42.3C187.8 42.3 188.2 42.1 188.5 41.7C188.7 41.2 188.9 40.7 188.9 40Z" fill="black"/>
<path d="M194.3 44V42.3C194.7 42.3 195 42.2 195.3 41.9C195.6 41.6 195.8 41.1 196 40.4C196.2 39.7 196.3 38.9 196.3 38.1C196.3 37.7 196.2 37.5 196.1 37.3C196 37.2 195.7 37.1 195.4 37.1V36.9H200.4V37.1C200.1 37.1 199.9 37.2 199.7 37.3C199.6 37.4 199.5 37.7 199.5 38.2V41.4C199.5 42 199.8 42.2 200.4 42.2V44H200.2C200.2 43.6 200.1 43.2 199.8 43C199.5 42.7 199.1 42.6 198.6 42.6H196.3C195.3 42.6 194.8 43.1 194.7 44.1H194.3V44ZM196.6 37.3C196.6 39.7 196.3 41.3 195.6 42.1H197.9C198.2 42.1 198.3 42.1 198.4 42C198.5 41.9 198.5 41.8 198.5 41.5V37.3H196.6Z" fill="black"/>
<path d="M209.5 40.4C209.4 41 209.1 41.6 208.6 42C208.2 42.4 207.7 42.7 207.1 42.7C206.3 42.7 205.7 42.4 205.3 41.8C204.9 41.2 204.6 40.6 204.6 39.8C204.6 38.9 204.9 38.2 205.4 37.6C205.9 37.1 206.6 36.8 207.4 36.8C207.9 36.8 208.4 36.9 208.8 37.2C209.2 37.5 209.4 37.8 209.4 38.1C209.4 38.2 209.3 38.3 209.2 38.4C209.1 38.5 209 38.5 208.8 38.5C208.4 38.5 208.2 38.3 208.2 37.9C208.2 37.6 208.1 37.4 207.9 37.3C207.8 37.2 207.5 37.1 207.2 37.1C206.7 37.1 206.3 37.3 206 37.7C205.7 38.1 205.6 38.6 205.6 39.2C205.6 39.9 205.8 40.5 206.1 41C206.4 41.5 206.9 41.7 207.5 41.7C208.4 41.7 208.9 41.2 209.2 40.3L209.5 40.4Z" fill="black"/>
<path d="M216.8 37.3V41.4C216.8 41.7 216.9 41.9 217 42.1C217.1 42.2 217.4 42.3 217.7 42.3V42.5H214.9V42.3C215.2 42.3 215.5 42.2 215.6 42.1C215.7 42 215.8 41.7 215.8 41.3V37.3H214.9C214.6 37.3 214.4 37.4 214.2 37.5C214.1 37.6 213.9 37.9 213.8 38.4H213.5L213.7 36.9H218.6L218.8 38.4H218.5C218.4 37.9 218.3 37.6 218.1 37.5C218 37.4 217.7 37.3 217.4 37.3H216.8Z" fill="black"/>
<path d="M223.2 36.9H225.8C226.6 36.9 227.2 37 227.6 37.3C228 37.5 228.1 37.9 228.1 38.4C228.1 38.7 228 39 227.8 39.2C227.6 39.4 227.3 39.5 227 39.6C227.5 39.7 227.8 39.8 228.1 40.1C228.3 40.3 228.5 40.6 228.5 41C228.5 41.3 228.4 41.6 228.2 41.8C228 42 227.8 42.2 227.4 42.4C227.1 42.5 226.5 42.6 225.8 42.6H223.2V42.4C223.5 42.4 223.7 42.3 223.9 42.2C224 42.1 224.1 41.8 224.1 41.4V38C224.1 37.7 224 37.4 223.9 37.3C223.8 37.2 223.5 37.1 223.2 37.1V36.9ZM225.1 39.4C225.2 39.4 225.3 39.4 225.4 39.4C225.9 39.4 226.4 39.3 226.6 39.1C226.9 38.9 227 38.6 227 38.3C227 38 226.9 37.7 226.6 37.5C226.3 37.3 226 37.2 225.4 37.2C225.3 37.2 225.2 37.2 225 37.2V39.4H225.1ZM225.1 42C225.4 42.1 225.6 42.1 225.9 42.1C226.3 42.1 226.6 42 226.9 41.8C227.2 41.6 227.3 41.3 227.3 40.9C227.3 40.5 227.2 40.3 226.9 40.1C226.6 39.9 226.2 39.8 225.7 39.8C225.5 39.8 225.4 39.8 225.1 39.8V42Z" fill="black"/>
<path d="M238.8 39.5C238.8 40.3 238.5 41.1 237.9 41.7C237.3 42.3 236.7 42.6 235.9 42.6C235.2 42.6 234.6 42.3 234 41.8C233.5 41.3 233.2 40.6 233.2 39.8C233.2 39 233.5 38.3 234 37.7C234.5 37.1 235.2 36.7 236.1 36.7C236.8 36.7 237.5 37 238 37.5C238.5 38.1 238.8 38.8 238.8 39.5ZM237.7 40C237.7 39.2 237.5 38.6 237.2 38C236.9 37.4 236.4 37.2 235.8 37.2C235.3 37.2 235 37.4 234.7 37.8C234.4 38.2 234.3 38.7 234.3 39.4C234.3 40.2 234.5 40.8 234.8 41.4C235.1 42 235.6 42.3 236.2 42.3C236.6 42.3 237 42.1 237.3 41.7C237.5 41.2 237.7 40.7 237.7 40Z" fill="black"/>
</g>
<defs>
<clipPath id="clip0_6_61">
<rect width="352.1" height="48.5" fill="white"/>
</clipPath>
</defs>
</svg>
